<svg id="Слой_1" data-name="Слой 1" xmlns="http://www.w3.org/2000/svg" viewBox="0 0 100 100"><defs><style>.cls-1{fill:#d5f6e0;}.cls-2{fill:#00548b;}.cls-3{fill:#fefefe;}.cls-4{fill:#a2d9f7;}.cls-5{fill:#fff;}.cls-6{fill:#86ae34;}</style></defs><title>главная физ лица</title><circle class="cls-1" cx="50" cy="50" r="50"/><g id="_2750922207984" data-name=" 2750922207984"><path class="cls-2" d="M33.21,21.28c-2.48,0-4,1.41-5.34,3.1l-.34.44c-.32.28-2.15.19-2.76.36-.77.21-1,.94-1.16,1.89a5.39,5.39,0,0,0,.76,3.9c.23.39.66.38,1.13.43a25.88,25.88,0,0,0,3.08.06c.29,2.69.51,4.65.73,7.43.19,2.5.39,5,.6,7.54q.64,7.54,1.23,15.09c.4,5.06.85,10.1,1.12,15.19a4.3,4.3,0,0,0,.2,1.77c1.32,2,1.86,1.65,4.54,1.65s5.45-.05,8.15,0a6.4,6.4,0,0,0,12.76.15c2.74,0,5.48.1,8.23.13a4.23,4.23,0,0,0,3.22-.94,2.37,2.37,0,0,0,.82-1.24,18.13,18.13,0,0,0,.21-1.92c.26-2.5.61-5,.94-7.43s.59-5,.89-7.47c.59-5,1.23-9.94,1.84-14.91.2-1.62,1.71-14.35,1.94-14.81,1.57-.14,3,.11,3.2-2.61.13-1.92-1.12-2.86-2.86-3.06a3.38,3.38,0,0,0-2.87-3.49,4.39,4.39,0,0,0-2.84-3.33,36,36,0,0,0-5.8-.45c-3.94-.19-7.88-.46-11.8-.68s-7.87-.37-11.77-.69c-2.2-.18-3.44-.63-5.23.44a6.65,6.65,0,0,0-2.82,3.42Z"/><path class="cls-3" d="M29.69,31.39a24,24,0,0,0,.12,3.82c.82,13.52,2.24,27,3.19,40.5.1,1.47,0,2.29.82,3.16.44.46.54.52,1.4.55.66,0,1.32,0,2,0,2.64,0,5.3.11,7.95.1A6.4,6.4,0,0,1,56,75.29a5.22,5.22,0,0,1,1.3,1.82A8.88,8.88,0,0,1,58,79.64c1.44.1,6.42.15,8,.15a4.22,4.22,0,0,0,2.91-1.17c.52-.46.72-2.42.82-3.27L74.21,39c.29-2.34.73-5,.86-7.35-3.75,0-7.57-.06-11.34-.07-2.78,0-32.44-.36-34-.13Z"/><path class="cls-4" d="M26,25.83c-1.24.2-1.53.77-1.69,2a2.92,2.92,0,0,0,1.07,2.56c.64.4,6,.3,7.06.3L69.2,31c2.47,0,4.94.08,7.38-.05.53,0,1.15,0,1.39-.44.48-.83.8-3-1.36-3.56-1.82-.45-5.05-.31-7.06-.34-9.64-.12-19.36-.42-29-.6L29.7,25.82a28.74,28.74,0,0,0-3.67,0Z"/><path class="cls-2" d="M28.48,25.21l46.9,1c0-2.43-1.47-2.78-3.91-2.9-2.16-.11-4.36-.16-6.53-.23-8.68-.26-17.4-.67-26.1-.88a46.63,46.63,0,0,0-6.59,0,6.44,6.44,0,0,0-3.77,3Z"/><path class="cls-3" d="M34,21.46,72.6,22.79a3.41,3.41,0,0,0-1-1.93,2.43,2.43,0,0,0-1.94-.95c-1.86-.14-3.71-.23-5.59-.33-3.62-.2-7.37-.61-10.93-.73s-7.41-.42-11.06-.64c-1.67-.1-3.78-.49-5.19.19A6.74,6.74,0,0,0,34,21.46Z"/><path class="cls-5" d="M51.15,77c-4,.64-3,6.59.95,6a3,3,0,0,0-.95-6Z"/><path class="cls-6" d="M51.26,62.11c.29-.72.05-5,.06-6.11-2.88-.38-9.35.89-10.78-1.11l3.11,5.89c.86,1.49,1.05,1.4,3.14,1.37C48.27,62.14,49.77,62.1,51.26,62.11Z"/><path class="cls-6" d="M48.27,39.71c1.94.74,2.27.72,3.26,2.36a31,31,0,0,1,2.07,3.69,6.24,6.24,0,0,0-1.44.89l5.6.49A45.64,45.64,0,0,0,60,42c-.62.24-1,.64-1.61.82a20.18,20.18,0,0,0-1.57-2.69c-.73-.68-3-.55-4.16-.55a25.89,25.89,0,0,0-4.4.15Z"/><path class="cls-6" d="M55.8,56.39l0-1.71a36.84,36.84,0,0,0-2.84,4.6l2.89,4.6V62.14c3-.22,3.48.87,5.27-2.65.38-.75,2.46-4.93,2.5-5.25a5.18,5.18,0,0,1-2.91,2,32.24,32.24,0,0,1-4.87.11Z"/><path class="cls-6" d="M43,45.87a4.4,4.4,0,0,0,1.15.74l1.19.68a19.22,19.22,0,0,0,2.5,1.36c.71-1.21,3.88-5.46,3.59-6.1a5.42,5.42,0,0,0-1.57-1.79A3.9,3.9,0,0,0,47.36,40c-1.44.17-1.91,1.74-3.05,3.63A22,22,0,0,0,43,45.87Z"/><path class="cls-6" d="M56,49.89c.26.88,3.35,5.18,3.76,6.17,1.82,0,4.55-2,3.83-4-.24-.64-2.36-4.63-2.76-5.16Z"/><path class="cls-6" d="M39.83,48.82l1.47,1c-1.35,1.78-1.88,4.68,1.15,5.58a11.6,11.6,0,0,0,2.89.18C45,55,44.5,55,45.06,54a6.26,6.26,0,0,1,1.19-1.31l1.45.8a34.27,34.27,0,0,0-2.52-4.84l-5.35.12Z"/></g><g id="_2750922205104" data-name=" 2750922205104"><path class="cls-6" d="M32.45,10.39A14.35,14.35,0,1,1,18.1,24.74,14.35,14.35,0,0,1,32.45,10.39Z"/><path class="cls-4" d="M32.49,33.48a2.26,2.26,0,1,0,0-4.51,2.26,2.26,0,1,0,0,4.51Zm-2.14-5.15h4.28L34.91,16H30Z"/></g></svg>
