<svg id="Слой_1" data-name="Слой 1" xmlns="http://www.w3.org/2000/svg" viewBox="0 0 100 100"><defs><style>.cls-1{fill:#d5f6e0;}.cls-2{fill:#00548b;}.cls-3{fill:#fff;}.cls-4{fill:#a2d9f7;}.cls-5{fill:#7fcf00;}</style></defs><title>главная физ лица</title><circle class="cls-1" cx="50" cy="50" r="50"/><g id="Слой_1-2" data-name="Слой_1"><g id="_2750254359680" data-name=" 2750254359680"><path class="cls-2" d="M12.16,52.19c-4.49.07-3.79-.49-3.79,4.15a20.2,20.2,0,0,0,.13,3.82c.24.46.74.5,1.35.65.86.22.89.11,1.34.75l3.33,4.67c.78,1.09,1.11.8,3.23.8,1.35,0,2.73,0,4.08,0,.77,2.05,1.32,3.14,2.67,4.17a8,8,0,0,0,11.79-1.74A10.54,10.54,0,0,0,37.37,67h29c.8,1.93.9,2.63,2.69,4.16a8,8,0,0,0,5,1.85,8.09,8.09,0,0,0,5.12-1.78A8.35,8.35,0,0,0,81.92,67c1.48-.14,3.72,0,5.28,0s1.28-.2,3-2.32,1.38-1.49,1.38-4c0-1.55.13-12.68-.1-13.36S91,46,90.71,45.41c-1.09-2.51-2.12-5.05-3.2-7.55-.93-2.15-.42-2.32-3-2.32H71.21c-1,0-1.45.24-1.47,1.29-.14,7.09,0,14.39,0,21.49-.33.29-.77.59-1.09.87-.72.62-.33.48-1.62.47s-2.83.06-4.17,0l1.8-1.59c1-.84,1-.75,1-2.49V34.74c0-3.21.25-2.75-4.17-2.75-8.63,0-17.47-.08-26.07,0-.95,0-.84,0-1.33-.49l-2.58-2.56c-.44-.46-.45-.53-1.32-.53-4.8,0-5-.41-5,2,0,1.14,0,2.29,0,3.43s-.23,1.06-1.17,2.32L15.14,48.12l-1.5,2a17.19,17.19,0,0,0-1.47,2.05Z"/><path class="cls-3" d="M9.88,53.7v5.56a6.39,6.39,0,0,0,2.45.41H22.79c1.07,0,.47.21,2-1a7.31,7.31,0,0,1,2-1.09,8.24,8.24,0,0,1,8.23,1.64c.46.47.35.49,1.13.49H57.9c2.31,0,2.31.38,3.71-1l2.58-2.15V33.48c-9.66.08-19.73,0-29.43,0a40.57,40.57,0,0,1-1.24,4.37L31.7,40.23c-.2.28-.41.51-.62.8l-7.34,9.6c-3.09,3.94-1.18,3.07-8.18,3.07-1.82,0-3.89-.1-5.68,0Z"/><path class="cls-3" d="M14,52.2h6.69A5.75,5.75,0,0,1,21.55,51l6.07-7.92c1.18-1.53,2.28-3,3.46-4.53.34-.43.54-.71.87-1.13A2.81,2.81,0,0,0,32.52,36a31.69,31.69,0,0,0,.85-3.22c-.38-.3-.83-.82-1.2-1.16-2-1.86-1.11-1.71-3-1.71a19.7,19.7,0,0,0-2.41,0c-.09,1.3,0,2.89,0,4.22s-.46,1.57-1.49,2.94l-7.48,10C17.23,47.85,14.21,51.75,14,52.2Z"/><path class="cls-3" d="M77.18,57.68a7,7,0,0,1,2.31,1.41c.46.48.33.59,1.23.58,1.94,0,8.26.09,9.4,0V48.49H77.22l0,9.21Z"/><path class="cls-3" d="M28.91,58.6a6.48,6.48,0,1,0,7.18,5.65,6.48,6.48,0,0,0-7.18-5.65Z"/><path class="cls-3" d="M73.28,58.62a6.49,6.49,0,1,0,6.47,3.08A6.92,6.92,0,0,0,78.23,60a6.45,6.45,0,0,0-5-1.36Z"/><path class="cls-3" d="M37.64,65.53H46.7c.11-.86-.38-2.78.73-2.84s.75,2,.82,2.83h7.47c.07-.9-.37-2.81.74-2.84s.64,1.79.81,2.83H66.1a11.13,11.13,0,0,1,.22-2.36,18,18,0,0,1,.76-2H36.66a16.25,16.25,0,0,1,.75,2,15.52,15.52,0,0,1,.23,2.4Z"/><polygon class="cls-3" points="77.18 46.97 89.7 46.97 85.53 37.04 77.19 37.04 77.18 46.97"/><path class="cls-3" d="M71.25,57.55c.56-.07,1.22-.37,2-.45a12.83,12.83,0,0,1,2.45.07V37H71.25V57.55Z"/><path class="cls-2" d="M73.44,61.65c-4.74,1.08-2.9,7.73,1.41,6.79C79.5,67.44,77.79,60.66,73.44,61.65Z"/><path class="cls-2" d="M29,61.6a3.48,3.48,0,0,0-2.88,4,3.52,3.52,0,0,0,4,2.83c4.42-.71,3.55-7.6-1.14-6.86Z"/><path class="cls-3" d="M21.53,65.53a18.85,18.85,0,0,1,.26-2.39,15.51,15.51,0,0,1,.75-2H12.8c.2.44,2.35,3.35,2.71,3.88.48.71.87.47,2.71.47,1.09,0,2.22,0,3.31,0Z"/><path class="cls-3" d="M82.19,65.53c1,0,2,0,3,0,3.15,0,2,.44,4.1-2l.69-.83a3.12,3.12,0,0,0,.14-1.47l-8.93,0a10.27,10.27,0,0,1,1,4.37Z"/><path class="cls-3" d="M73.58,63.15a2,2,0,1,0,1.18,3.77C77.19,66.16,76.07,62.36,73.58,63.15Z"/><path class="cls-3" d="M29,63.17a2,2,0,1,0,1.23,3.74,2,2,0,0,0,1.26-2.52A2,2,0,0,0,29,63.17Z"/><path class="cls-4" d="M80.08,51.46a.74.74,0,0,0,.19,1.42,13.39,13.39,0,0,0,2.56-.06.75.75,0,0,0-.21-1.42,11.56,11.56,0,0,0-2.54.06Z"/><path class="cls-5" d="M46,37.42a3.53,3.53,0,0,1,1.53,1.16c.08.1.15.2.22.31a3.94,3.94,0,0,1,.4.66,9.45,9.45,0,0,1,.52,1,.6.6,0,0,1,.16.28,3.6,3.6,0,0,1,.27.48c.1.17.16.32.27.49s.3.52.42.78h0l-.29.19-.3.19a4.14,4.14,0,0,0-.59.4l4.32,0a1.11,1.11,0,0,1,.21-.31c0-.07.57-1,.61-1l.74-1.24c.06-.1.7-1.14.74-1.23l-.58.29-.77.4c-.12-.28-.69-1.22-.71-1.34L53,38.65a2.38,2.38,0,0,0-1.6-1.31c-.32-.07-2.42,0-2.88,0h-.14l-2.57,0,.18.06Z"/><path class="cls-5" d="M50.4,49.17a4.25,4.25,0,0,1-.31.53c0,.06-.54,1-.59,1.07a3.43,3.43,0,0,1-.35.63,4.8,4.8,0,0,1-.34.62c0,.12-.13.23-.17.32s.08.22.12.3a5.42,5.42,0,0,1,.33.63,4.75,4.75,0,0,1,.35.65,1.42,1.42,0,0,1,.19.31,3,3,0,0,1,.17.33,11.2,11.2,0,0,1,.53,1,.41.41,0,0,1,.12.2c.08.08.23.46.3.51l.05-1.54h1.73a3,3,0,0,0,.8-.06,5.4,5.4,0,0,0,.62-.24h0l.43-.34.09-.1c.13-.14.2-.31.26-.36a10,10,0,0,1,.53-1,1.76,1.76,0,0,1,.16-.34,1.25,1.25,0,0,1,.18-.31,4,4,0,0,1,.33-.62,2,2,0,0,1,.17-.34,1.24,1.24,0,0,1,.19-.31,1,1,0,0,1,.16-.33l.16-.31c.11-.23.52-.94.58-1.1l-.22.18a2.11,2.11,0,0,1-.22.17,3,3,0,0,1-.49.28,4.1,4.1,0,0,1-1.2.33c-.68.09-2.24.05-3,.05H50.84l-.08-1.42a3.83,3.83,0,0,0-.36.62Z"/><path class="cls-5" d="M39.23,49.44l0,0,.29.56a10.54,10.54,0,0,1,.54,1,.71.71,0,0,1,.16.29s.5.9.55,1l.35.63a5.62,5.62,0,0,1,.32.63c.1.07.12.29.4.53.09.08.27.18.31.23a2.59,2.59,0,0,1,.31.13l.35.11a.89.89,0,0,1,.29.08l1,.06h1c.35,0,1.82,0,2,0V50A11.06,11.06,0,0,0,46,50l-3.45,0a8,8,0,0,1-2.16-.15A3.37,3.37,0,0,1,39,48.92c0,.14.25.42.25.52Z"/><path class="cls-5" d="M39.35,44.05l.62.47,0,0c-.14.24-.28.53-.42.8s-.39.75-.58,1.12a1.74,1.74,0,0,0-.33,1.36,2.34,2.34,0,0,0,.21.48,2.75,2.75,0,0,0,1.11,1,6.18,6.18,0,0,0,2.49.33c.06-.1.34-.56.37-.58a3.37,3.37,0,0,1,.37-.6,10.69,10.69,0,0,1,.63-1,2.79,2.79,0,0,1,.32-.52l.14.07.11.07h0a9.5,9.5,0,0,1,.93.5c.07,0,.05,0,0,0a4.82,4.82,0,0,1-.34-.63,4.14,4.14,0,0,1-.35-.64C44.67,46.21,44,45,44,44.91c-.26-.46-.49-.91-.75-1.38l-4.47,0c.08.12.53.4.58.49Z"/><path class="cls-5" d="M43.43,38.94a4,4,0,0,1-.42.63,2.16,2.16,0,0,1-.2.35l-.63,1L42.1,41l-.1.12c0,.08-.07.11-.1.21l1,.56a3.21,3.21,0,0,1,.3.18,1,1,0,0,1,.17.09l.12.07,0,0c.14,0,2.27,1.37,2.52,1.47l.63-1a3.41,3.41,0,0,1,.39-.63,4.05,4.05,0,0,1,.29-.49l.15-.25a.84.84,0,0,1,.15-.22,2,2,0,0,1,.19-.33,1.39,1.39,0,0,1,.2-.3c0-.09.16-.24.16-.31s-.5-.84-.51-.95-.29-.4-.45-.56-.08-.11-.15-.17l-.7-.63c-.07,0-.28-.16-.38-.21a1.63,1.63,0,0,0-1.45,0,1.27,1.27,0,0,0-.62.58c-.15.24-.3.48-.46.7Z"/><path class="cls-5" d="M55.59,43.56a1.52,1.52,0,0,1-.31.21A1.83,1.83,0,0,1,55,44a5.21,5.21,0,0,1-.46.29l-.24.15a.76.76,0,0,1-.23.12,1.2,1.2,0,0,1-.31.21,1.92,1.92,0,0,1-.33.19s-.41.26-.5.32a3.92,3.92,0,0,1-.51.29l0,0-.56.33c0,.05,0,0-.09.06a9.23,9.23,0,0,0,.48.93l1.23,2.28.12.24.14.23a4.82,4.82,0,0,0,1.19,0,5.46,5.46,0,0,0,1.06-.22c1-.33,1.83-1,1.69-2.1a3,3,0,0,0-.38-.89c-.11-.22-.83-1.6-.84-1.69a.82.82,0,0,1-.16-.3l-.47-.91a.77.77,0,0,1-.16.07Z"/></g></g></svg>
