<svg id="Слой_1" data-name="Слой 1" xmlns="http://www.w3.org/2000/svg" viewBox="0 0 100 100"><defs><style>.cls-1{fill:#d5f6e0;}.cls-2{fill:#00548b;}.cls-3{fill:#86ae34;}.cls-4{fill:#a2d9f7;}</style></defs><title>главная физ лица</title><circle class="cls-1" cx="50" cy="50" r="50"/><path class="cls-2" d="M41.43,80.56a1.19,1.19,0,0,1-.84-.35l-4.9-4.9H28.54a8.36,8.36,0,0,1-8.36-8.36V48.57a8.36,8.36,0,0,1,8.36-8.36H40.59a1.19,1.19,0,1,1,0,2.39H28.54a6,6,0,0,0-6,6V66.95a6,6,0,0,0,6,6h7.76a1.19,1.19,0,0,1,1.09.72l2.85,2.85V74.11a1.19,1.19,0,0,1,1.19-1.19H54.32a6,6,0,0,0,6-6V58.71a1.19,1.19,0,0,1,2.39,0v8.24a8.36,8.36,0,0,1-8.36,8.36H42.62v4.06a1.19,1.19,0,0,1-1.19,1.19Z"/><path class="cls-3" d="M63.94,20.64h-3A16.15,16.15,0,0,0,44.77,36.79h0A16.15,16.15,0,0,0,60.92,52.95h3a16.15,16.15,0,0,0,4.75-.71l5,5V49.7A16.13,16.13,0,0,0,80.1,36.79h0A16.15,16.15,0,0,0,63.94,20.64Z"/><path class="cls-2" d="M73.65,58.39a1.19,1.19,0,0,1-.84-.35l-4.46-4.46a17.38,17.38,0,0,1-4.4.56h-3a17.35,17.35,0,0,1,0-34.7h3A17.37,17.37,0,0,1,81.29,36.79a17.16,17.16,0,0,1-1.89,7.87,17.51,17.51,0,0,1-4.56,5.62v6.91a1.19,1.19,0,0,1-1.19,1.19ZM68.7,51a1.19,1.19,0,0,1,.84.35l2.92,2.92V49.7a1.19,1.19,0,0,1,.48-1,15,15,0,0,0-9-26.92h-3a15,15,0,1,0,0,29.92h3a15,15,0,0,0,4.4-.66A1.19,1.19,0,0,1,68.7,51Z"/><path class="cls-1" d="M62.77,41.74a1.19,1.19,0,0,1-1.19-1.19V37.68a2.26,2.26,0,0,1,1.78-2.21,2.67,2.67,0,1,0-3.25-2.6,1.19,1.19,0,1,1-2.39,0,5.07,5.07,0,0,1,1.61-3.69,5,5,0,0,1,3.8-1.35,5.05,5.05,0,0,1,.84,10v2.77A1.19,1.19,0,0,1,62.77,41.74Z"/><path class="cls-1" d="M62.77,46.46a1.19,1.19,0,1,1,.84-.35A1.2,1.2,0,0,1,62.77,46.46Z"/><path class="cls-4" d="M53,58.83H27.82a1.19,1.19,0,1,1,0-2.39H53a1.19,1.19,0,0,1,0,2.39Z"/><path class="cls-4" d="M53,65.52a1.19,1.19,0,1,1,.84-.35A1.2,1.2,0,0,1,53,65.52Z"/><path class="cls-4" d="M48.31,65.52H27.82a1.19,1.19,0,1,1,0-2.39H48.31a1.19,1.19,0,1,1,0,2.39Z"/><path class="cls-4" d="M45.25,52.15H27.82a1.19,1.19,0,0,1,0-2.39H45.25a1.19,1.19,0,0,1,0,2.39Z"/></svg>
