<svg id="Слой_1" data-name="Слой 1" xmlns="http://www.w3.org/2000/svg" viewBox="0 0 99.91 99.91"><defs><style>.cls-1{fill:#d5f6e0;}</style></defs><title>Главная юр лица</title><path d="M50,99.91a50,50,0,1,1,50-50A50,50,0,0,1,50,99.91ZM50,4.32A45.64,45.64,0,1,0,95.59,50,45.69,45.69,0,0,0,50,4.32Z"/><path class="cls-1" d="M93.07,72.78a2.16,2.16,0,0,1-1.95-3.09A45.21,45.21,0,0,0,95.59,50,45.69,45.69,0,0,0,50,4.32,2.16,2.16,0,0,1,50,0a50,50,0,0,1,50,50A49.5,49.5,0,0,1,95,71.55,2.16,2.16,0,0,1,93.07,72.78Z"/></svg>