<svg viewBox="0 0 73 50" fill="none" xmlns="http://www.w3.org/2000/svg">
    <path fill-rule="evenodd" clip-rule="evenodd"
        d="M19.4677 0.00803617C29.1139 0.00803617 37.4629 5.64943 
        41.4424 13.8383H31.7325C28.7399 10.3988 24.3545 8.22903 19.4677 8.22903C11.3018 8.22903 6.79697 14.3204 
        6.85268 14.2481C4.27397 16.6349 0 14.8348 0 11.2024C0 10.1738 0.374073 9.24159 
        0.978956 8.51834C5.46782 3.30287 12.0817 0 19.4677 0V0.00803617ZM41.4106 35.6565L41.4185 35.6324C41.522 
        35.4154 41.6255 35.1984 41.721 34.9814L51.0569 15.0839C51.2956 14.6339 51.7652 14.3285 
        52.3064 14.3204C52.9033 14.3124 53.4207 14.666 53.6674 15.1884H53.6754C56.8828 21.2316 60.0664 27.1944
        63.258 33.2456C64.6747 35.8815 63.7435 39.1683 61.1727 40.5746C58.602 41.9809 55.3627 40.9844 
        53.946 38.3486L50.4599 31.8714L46.1143 41.3863L46.5362 42.1899C48.8045 46.5053 53.3093 49.4546 
        58.4905 49.4546C65.9561 49.4546 72.0128 43.339 72.0128 35.8011C72.0128 33.4867 71.4398 31.3009 
        70.429 29.3883L56.1108 2.19387C55.4263 0.892015 54.0654 0.00803617 
        52.5054 0.00803617H52.4736C52.4497 0.00803617 52.4258 0.00803617 52.4019 0.00803617C50.834 0.0401808 49.481 0.956304 48.8204 2.27424L39.6198 20.5806H35.2742H23.5506H23.5427C21.2823 20.5806 19.4517 22.4289 19.4517 24.7112C19.4517 26.9935 21.2823 28.8418 23.5427 28.8418H23.5506H35.306C32.2578 41.33 15.6314 45.8544 6.90044 35.2306C6.16821 34.5475 5.18926 34.1296 4.11479 34.1296C0.676513 34.1296 -1.16997 38.1316 0.883447 40.7916C5.37231 46.0713 12.026 49.4224 19.4597 49.4224C29.0821 49.4224 37.4072 43.8132 41.4026 35.6565H41.4106Z"
        fill="white" />
</svg>