<svg id="Слой_1" data-name="Слой 1" xmlns="http://www.w3.org/2000/svg" viewBox="0 0 120.5 68.08"><defs><style>.cls-1{fill:#f8f8f8;stroke:#89c228;stroke-miterlimit:10;stroke-width:0.5px;}.cls-2{fill:#298945;}.cls-3{fill:#2d4ea0;}.cls-4{fill:#ffc500;}.cls-5{fill:#80591b;}.cls-6{fill:#ec2820;}.cls-7{fill:#093a17;}.cls-8{fill:#3c2809;}.cls-9{fill:#5c4802;}.cls-10{fill:#0c1837;}.cls-11{fill:#610902;}.cls-12{fill:#df1f1b;}.cls-13{fill:#7f581a;}.cls-14{fill:#fec91a;}.cls-15{fill:#986c28;}.cls-16{fill:#f23e36;}.cls-17{fill:#ed1a24;}.cls-18{fill:#fcfcfc;}.cls-19{fill:#fe0200;}.cls-20{fill:#fefefe;}.cls-21{fill:#d7dbe1;}.cls-22{fill:#7ed321;}.cls-23{fill:#535455;}.cls-24{fill:#cde1ef;}.cls-25{fill:#2684b1;}.cls-26{fill:#cae1e6;}.cls-27{fill:#ddeef6;}.cls-28{fill:#a5d5f1;}.cls-29{fill:#fec502;}.cls-30{fill:#ed2921;}.cls-31{fill:#de3a39;}.cls-32{fill:#9ab4b9;}.cls-33{fill:#4a9b5f;}.cls-34{fill:#4865ae;}.cls-35{fill:#fecf35;}.cls-36{fill:#a1793b;}.cls-37{fill:#9fd8f5;}.cls-38{fill:#f34f48;}.cls-39{fill:#f2f4f8;}.cls-40{fill:#8ac93a;}.cls-41{fill:#64a222;}.cls-42{fill:#2c4d9f;}.cls-43{fill:#328e4c;}.cls-44{fill:#8b652a;}.cls-45{fill:#ffcd26;}.cls-46{fill:#e6332e;}.cls-47{fill:#298844;}.cls-48{fill:#ecf3f6;}.cls-49{fill:#379251;}.cls-50{fill:#f10c28;}.cls-51{fill:#d60b0e;}.cls-52{fill:#b4c9ce;}.cls-53{fill:#d71a18;}.cls-54{fill:#f8f8f6;}.cls-55{fill:#4c361f;}.cls-56{fill:#fcfbfb;}.cls-57{fill:#d6e9f5;}.cls-58{fill:#f5918f;}.cls-59{fill:#aed1b4;}.cls-60{fill:#999a9c;}.cls-61{fill:#c9e3e8;}.cls-62{fill:#98da51;}.cls-63{fill:#7a5121;}.cls-64{fill:#abd7f1;}.cls-65{fill:#fbf8e9;}.cls-66{fill:#815b1d;}.cls-67{fill:#3556a5;}.cls-68{fill:#7cd121;}.cls-69{fill:#f83636;}.cls-70{fill:#181818;}.cls-71{fill:#4b4b4d;}.cls-72{fill:#3151a2;}.cls-73{fill:#a5a6a7;}.cls-74{fill:#5872b3;}.cls-75{fill:#976f34;}.cls-76{fill:#313131;}.cls-77{fill:#0c0c0c;}.cls-78{fill:#f44a44;}.cls-79{fill:#d8dde6;}.cls-80{fill:#fec913;}</style></defs><title>главная физ лица</title><rect class="cls-1" x="0.25" y="0.25" width="120" height="67.58"/><g id="Слой_1-2" data-name="Слой_1"><g id="_2525964993248" data-name=" 2525964993248"><path class="cls-2" d="M60,54.94a1.12,1.12,0,0,1,0,.81c-.22-.05-.15-.11-.15-.38S59.73,55,60,54.94ZM62,61.62H61.5c-1.05,0-2.82,0-3.31-.06a17.43,17.43,0,0,1-2.86-.32c-.22-.94-.69-5.71-.7-6.62,0-.66-.11-1.28-.16-1.94l-.22-3.39c0-.24,0-.22-.06-.48,0-.84-.16-2.17-.16-2.91-.39,0-1,.08-1-.7s-.1-1.09.25-1.42c.17-.16.26-.14.56-.14a16.11,16.11,0,0,1,1.45-4.47c.42-.76.63-1.34,1.5-1.46l2.81-.15c.6,0,5.91,0,6.61.61a5.4,5.4,0,0,1,1.23,2.37,12.73,12.73,0,0,1,.45,3.1.72.72,0,0,1,.81.81c0,1.2,0,1.45-1,1.45l-.22,2.48c0,.79-.18,1.63-.22,2.42L67,53.27c0,.38-.07.81-.11,1.23-.2,1.89-.39,4.18-.64,6-.14,1.05,0,.86-1.66,1-.76.08-1.69.1-2.54.1h0Zm-1.87-5.9V55C61,54.62,61.14,56,60.15,55.72ZM61.88,55h.4c.31.3.24.51,0,.8h-.42c-.27-.34-.27-.49,0-.81Zm-.41.49c.13.11.13.1.14.29-.28,0-.2-.15-.41-.3-.14.17,0,.19-.16.33-.13-.1-.1-.05-.09-.55V55c1.09-.19.51.46.51.46ZM59,55c.26,0,.18.24.31.47.16-.19.07-.36.28-.49,0,.05.18-.12,0,.45-.08.21-.06.26-.23.38-.17-.08,0,0-.15-.14S59,55.08,59,55Zm5.76-1.41c-1.09.64-5.19.54-6.63.34-1.66-.22-1.7-.46-1-1.88a16.38,16.38,0,0,1,3-4.25c.53-.49.74-.35,1.21,0a6.89,6.89,0,0,1,.87,1C62.73,49.33,65,52.51,64.8,53.55ZM61,44a53,53,0,0,1,7-.07c.32.05.43.09.51.39a3.2,3.2,0,0,1,0,.85L68.35,45c0-.06-.05-.12-.09-.18-.23-.39-.62-.35-1.19-.41-1.65-.18-3.89-.25-5.61-.31l-.37,0c-.11,0-.06,0-.12,0Zm5.32-1.14c-.89.33-9.67.27-10.73,0A7.23,7.23,0,0,1,56.7,39.3c.59-.67,3.16-.46,4.23-.41a28.26,28.26,0,0,1,4.35.4c.67.33,1.26,2.53,1,3.59Z"/><path class="cls-3" d="M43.49,55.1c.14.1.1,0,.1.27s0,.26,0,.38c.52,0,.33,0,.39.11-.12.07-.08.06-.27.06a.82.82,0,0,1-.29,0C43.39,55.67,43.33,55.21,43.49,55.1Zm0,6.52H42.31c-.27,0-.39-.06-.71-.06a26.72,26.72,0,0,1-4.68-.32,13.43,13.43,0,0,1-.27-1.83l-1-12.49c0-.31-.05-.57-.05-1-.39,0-1,.08-1-.7s-.15-1.56.81-1.56c.11-1.31,1.41-5.62,2.75-5.86A22.85,22.85,0,0,1,43,37.72c.29,0,.62,0,.92,0l1.67.11c.21,0,.55,0,.78.08,1.19.16,1.45.13,2.1,1.45A7.11,7.11,0,0,1,49,40.64a14.68,14.68,0,0,1,.45,3.05.7.7,0,0,1,.66.31,1.64,1.64,0,0,1,.15.76c0,1.24-.36,1.18-1,1.18,0,.27-.08.7-.1,1s0,.65-.07,1l-.26,2.92c0,.73-.24,2.12-.27,2.85l-.18,2c-.05.35-.06.62-.09,1-.13,1.24-.33,3.57-.58,4.64a7.47,7.47,0,0,1-1.56.21c-.27,0-.27,0-.54.06s-.82,0-1.18,0-.58,0-.92,0Zm-2.27-5.71a1.11,1.11,0,0,1,.32-.81c.24.1.38.66.38.82-.41,0,0-.13-.33-.18S41.5,55.87,41.17,55.91Zm1.26-.31-.25.05c0,.21,0,.12-.06.25H42v-.79c.4,0,.64-.09.59.36l-.15.11Zm-1.4,0-.25.05c0,.21,0,.12-.06.25h-.14v-.79c.4,0,.64-.09.59.36L41,55.6Zm1.83-.28c.09.23.15,0,.4.16-.1.18,0,0-.2.1s-.14-.06-.19.12c.23.17.28-.1.44.16,0,0,0,0,0,0s-.5,0-.57,0v-.78a1,1,0,0,1,.59,0c-.08.17.08.06-.17.11s-.09-.06-.25.05Zm3.53-1.56c-1.09.63-5.19.54-6.63.34-1.66-.23-1.7-.45-1-1.88a16.38,16.38,0,0,1,3-4.25c.53-.49.73-.35,1.21,0C43.89,48.74,46.61,52.69,46.39,53.76Zm-3.46-9.7a50.86,50.86,0,0,1,6.62,0c.51.11.49.61.46,1.24-.18-.19-.15-.43-.42-.62a2.11,2.11,0,0,0-.84-.17c-.6-.08-1.27-.11-1.88-.16a30.48,30.48,0,0,1-3.94-.25Zm-5.79-1.13a6.57,6.57,0,0,1,1.16-3.56c.64-.67,3.17-.44,4.27-.4a27.09,27.09,0,0,1,4.26.4c.71.39,1.17,2.53,1,3.57C46.8,43.28,38.41,43.21,37.14,42.94Z"/><path class="cls-4" d="M99.1,55.85a1.85,1.85,0,0,1,0-.8c.23.06.14.38.14.65.24,0,.31-.07.39.11A1,1,0,0,1,99.1,55.85Zm-.87,5.77h-.3l-2.71-.11a13.81,13.81,0,0,1-2.57-.23c-.21-.08-.21-.21-.25-.45L92.17,59c-.06-.41-.1-.9-.13-1.27l-.5-6.55c-.09-.8-.14-1.78-.2-2.59l-.16-2.65H104.8l-.68,7.85c-.06.42-.08.9-.12,1.28s-.1.86-.12,1.28c0,.23,0,.43-.06.69s0,.43-.07.63a21.1,21.1,0,0,1-.54,3.66C102.84,61.58,99.52,61.61,98.23,61.62Zm.05-5.77c-.05-.15,0-.29.1-.44s.08-.32.28-.37a1.58,1.58,0,0,1,.34.83c-.44-.07,0-.22-.4-.19s0,.14-.32.17Zm-2.19-.79c.35,0,.27,0,.33.34l.15-.29c.1-.11.07-.07.26-.06a1.41,1.41,0,0,1-.06.82c-.17-.11,0,.06-.13-.37,0,.22,0,.27-.19.37a.42.42,0,0,1-.17-.41s0,.23,0,.24c-.07.25.05.09-.13.17a1.27,1.27,0,0,1,0-.81Zm.92,0a5.33,5.33,0,0,1,1.31,0c-.06.13,0,0-.14.11s-.07-.11-.11.43c0,.27,0,.13-.1.23-.13-.1-.08,0-.1-.23,0-.08,0-.24,0-.33s-.61-.11-.68-.05,0,0,.18.09.14-.08.21.15c-.38.08-.36-.06-.4.19.22,0,.36-.07.44.11a1.1,1.1,0,0,1-.63,0v-.77Zm.85-7.46c.91-.44,3.08,3.28,3.39,3.82a10.56,10.56,0,0,1,.62,1.21,3.15,3.15,0,0,1,.23.7c0,.35-.11.4-.42.48a15,15,0,0,1-3.35.31,17.43,17.43,0,0,1-3.43-.22c-.62-.13-1-.18-.81-.9.39-1.38,2.62-4.84,3.78-5.4Z"/><path class="cls-5" d="M80.47,54.95c0,.08.16.67-.05.82-.16-.12-.1-.22-.1-.45s-.07-.34.15-.37Zm1,.08c.61-.28.93.23.65.6S81.23,55.87,81.48,55Zm-4.54,0c.06.19.15.6-.12.72s-.65,0-.6-.47.45-.36.72-.25Zm2.62.73,0-.8c.25,0,.2.08.34.26l0,0,.07.07,0,0c0-.27-.08-.35.14-.4a1.93,1.93,0,0,1,0,.78c-.27,0-.23-.08-.36-.25l-.12-.13c0,.27.08.35-.14.4Zm-1.92-.34a.85.85,0,0,1,.11.16c.08.24,0,.16,0,.19-.41-.11,0-.17-.38-.33l0,.07c-.06.25,0,.19-.13.26-.13-.17-.07-.59-.06-.81.22,0,.55-.06.63.12S77.71,55.31,77.64,55.41Zm3.69,0c0,.53-.71.45-.71-.05s.71-.6.7-.12c-.36,0,.05-.15-.42-.14-.12.22-.14.65.21.42.19-.12-.09-.1.22-.11Zm-2.91.11s-.13,0-.19-.16c.14-.1.17-.06.37-.05v.36c-1.11.43-.87-1.08-.14-.71a.19.19,0,0,1,.11.11c.12.35-.26-.07-.43.05S78.07,55.75,78.41,55.54Zm.47-.72a.28.28,0,0,1,.19-.07c.18.17.06,0,.11.27a3,3,0,0,1,.24.75c-.43-.08,0-.16-.35-.19s0,.13-.39.18c0-.38.23-.59.24-.74s-.09.17,0-.21Zm-3.48-1.35c-.12-1.21,2-4.16,2.56-4.79.88-1.06,1.28-1.55,2.1-.87a7.23,7.23,0,0,1,.86,1,21.14,21.14,0,0,1,2.12,3.37c.11.23.53,1.07.39,1.35s-1,.35-1.42.4c-1.39.16-5.3.37-6.61-.44Zm10.77-7.69H72.55a4.23,4.23,0,0,0,0,.69c0,.24,0,.44,0,.67.1.92.1,1.69.2,2.6L73,52.36c0,.93.27,3,.32,3.93l.37,3.83c.15,1.05-.24,1.24,2.92,1.28l2.74.11c1,0,4.89,0,5.26-.35s.84-7,.89-7.56l.59-6.46c0-.45.11-.91.11-1.37Z"/><path class="cls-6" d="M24.86,55.09a.76.76,0,0,1,0,.84A.76.76,0,0,1,24.86,55.09ZM26,55.9c-.19-.2-.24-.31-.12-.72C26.8,54.8,27,56,26,55.9Zm-4.73,0c-.07-.09,0,0-.07-.17,0,0,0-.19,0-.22a2.17,2.17,0,0,1,0-.42c.42,0,.66-.08.57.4a.73.73,0,0,1-.41.11C21.42,55.91,21.48,55.84,21.31,55.92Zm4.49-.36c-.06.75-1.16.27-.52-.45.33,0,.5,0,.51.31-.36-.06-.08-.22-.47-.13a.6.6,0,0,0,0,.44c.41,0,.06-.07.45-.17Zm-2.22-.25c.16.1.27.11.42.21,0,.62-.65.48-.61.09.25,0,.16.25.42.08-.16-.21-.49-.1-.42-.41s.3-.23.44-.17.06,0,.12.12,0,0,0,0,0,0,0,0l0,0,0,0a.4.4,0,0,1,.19,0,.77.77,0,0,1,.43.06c-.1.25,0,0-.24.16,0,.23,0,.45-.08.6-.2-.1-.1,0-.12-.64-.39,0-.15-.07-.37.11C23.51,55.15,23.61,55.3,23.58,55.32Zm-.33.6c-.22-.06-.22-.39-.56,0-.06.07-.59,0-.71,0a1.85,1.85,0,0,1,0-.8c.24.05.14.37.14.65h.39a2.26,2.26,0,0,0,.2-.45c.09-.26,0-.32.23-.4.07.1,0-.05,0,.09,0,.33-.07-.14,0,.1,0,0,.12.21.14.25C23.26,55.68,23.34,55.75,23.25,55.92ZM28,53.76c-1.1.64-5.23.54-6.68.34-1.67-.23-1.61-.52-.91-1.91a16.26,16.26,0,0,1,3-4.24c.79-.71,1.4.24,2.06,1.06.45.56,2.72,3.73,2.51,4.76Zm2.8-7.82H17.22l.32,5.33c0,.87.25,2.67.27,3.39,0,.33,0,.63.06,1,.06.61.09,1.29.17,1.93.16,1.24.19,2.49.47,3.68a21.18,21.18,0,0,0,3.18.32c.54.06,1.21,0,1.77,0a33.07,33.07,0,0,0,5.09-.13c.83-.12.7-.21.81-1,.22-1.49.56-4.84.66-6.39,0-.51.13-1.11.16-1.62s.09-1.15.15-1.63l.28-3.27a14,14,0,0,1,.16-1.62Z"/><path class="cls-7" d="M66.3,42.87c.24-1.06-.35-3.26-1-3.59a28.26,28.26,0,0,0-4.35-.4c-1.07,0-3.64-.26-4.23.41a7.23,7.23,0,0,0-1.13,3.56c1.06.28,9.84.34,10.73,0Z"/><path class="cls-8" d="M74.1,42.72c.57.27,6.24.25,7.28.24.5,0,3.28,0,3.46-.28.3-.58-.37-2.64-.61-3.08s-.58-.52-1.23-.6a52.43,52.43,0,0,0-5.38-.28c-1.49,0-2.18-.07-2.74,1a8.22,8.22,0,0,0-.77,3Z"/><path class="cls-9" d="M92.74,42.83c.45.23,10.46.46,10.74,0s-.37-2.7-.61-3.1-.58-.52-1.24-.59A38.35,38.35,0,0,0,94.51,39a1.4,1.4,0,0,0-1,.87,8.8,8.8,0,0,0-.76,3Z"/><path class="cls-10" d="M37.14,42.94c1.26.27,9.66.35,10.7,0,.16-1-.3-3.18-1-3.57a27.09,27.09,0,0,0-4.26-.4c-1.09,0-3.63-.27-4.27.4a6.57,6.57,0,0,0-1.16,3.56Z"/><path class="cls-11" d="M29.42,42.93a5.78,5.78,0,0,0-.59-3.09c-.34-.54-.43-.52-1.22-.61a51.88,51.88,0,0,0-5.33-.28c-1.52,0-2.21-.08-2.78,1-.14.26-1.13,2.85-.65,3l.2,0,.44,0,2.74.1c1.22,0,6.42.15,7.2-.2Z"/><path class="cls-4" d="M92.74,42.83a8.8,8.8,0,0,1,.76-3,1.4,1.4,0,0,1,1-.87,38.35,38.35,0,0,1,7.11.16c.67.07,1,.13,1.24.59s.92,2.55.61,3.1-10.29.26-10.74,0Zm10.79-3.25c-.93-1.32-1.79-1-3.08-1.4a4.48,4.48,0,0,1,2.64.33,4.15,4.15,0,0,1,1,2ZM91,43.64h14.1c-.14-1.73-.39-3.8-1.41-5.16a1.23,1.23,0,0,0-1-.59,27.6,27.6,0,0,0-3.82-.27c-.36,0-.46-.06-.8-.06-.9,0-4-.05-4.62.29-.86.44-1.87,3.41-2.13,4.44L91,43.64Z"/><path class="cls-12" d="M29.42,42.93c-.78.35-6,.22-7.2.2L19.48,43,19,43l-.2,0c-.48-.18.51-2.77.65-3,.57-1.08,1.26-1,2.78-1a51.88,51.88,0,0,1,5.33.28c.79.09.88.07,1.22.61a5.78,5.78,0,0,1,.59,3.09Zm-2.65-4.59,0,0c.19-.08.1-.07.69-.07a2.47,2.47,0,0,1,1.76.46,4.19,4.19,0,0,1,.92,2c-1-1.61-1-2-3.41-2.35ZM17,43.69c.16.08,13.8.08,14,0a10.13,10.13,0,0,0-.13-1.46,10.36,10.36,0,0,0-.25-1.37,6.58,6.58,0,0,0-1-2.29,1.29,1.29,0,0,0-1-.59,27.8,27.8,0,0,0-3.77-.27c-.36,0-.46-.06-.8-.06H22.39a12.3,12.3,0,0,0-3,.27c-.88.45-1.87,3.31-2.13,4.38A7.78,7.78,0,0,0,17,43.69Z"/><path class="cls-13" d="M74.1,42.72a8.22,8.22,0,0,1,.77-3c.57-1.05,1.26-1,2.74-1A52.43,52.43,0,0,1,83,39c.66.07,1,.09,1.23.6s.91,2.5.61,3.08c-.17.33-3,.28-3.46.28-1,0-6.71,0-7.28-.24ZM82,38.13c.32-.26,1.64-.07,1.94,0a1.3,1.3,0,0,1,.78.51,4.11,4.11,0,0,1,.75,1.85c-.88-1.66-1.22-2.08-3.47-2.36Zm-9.65,5.41h14a11.25,11.25,0,0,0-.77-4.08c-.39-.87-.67-1.52-1.6-1.68-.74-.13-2.23-.23-3-.28-.25,0-.55,0-.81,0s-.46-.06-.8-.06l-3.23.05c-1.3,0-1.62.21-2.15,1.13a15.09,15.09,0,0,0-1.38,3.52,10.69,10.69,0,0,0-.29,1.39Z"/><path class="cls-14" d="M98.34,44.15c1.39-.07,2.75-.14,4.14-.16.68,0,1.4,0,2.08,0,.93.08,1,.29.93,1.26,0,0,0,0,0,0s0,0,0,0l0-.08c-.25-.52-.23-.53-1.2-.62-.65-.06-1.28-.11-1.94-.15s-3.54-.07-3.93-.21Zm-7.16,1.74H104.8c.79.1,1-.18,1-.95a2.45,2.45,0,0,0-.08-.95.64.64,0,0,0-.68-.34H91c-.4,0-.56.06-.7.32a2.15,2.15,0,0,0-.11.92c0,.76.21,1.09,1,1Z"/><path class="cls-15" d="M79.67,44A56.35,56.35,0,0,1,86.32,44c.34.06.42.09.49.42a3,3,0,0,1,0,.79c-.18-.72-.51-.72-1.27-.8-2-.22-4.29-.15-5.91-.36Zm-7.12,1.74H86.17c.82.13,1-.25,1-1s0-1.28-.81-1.23h-14c-.91-.05-.8.67-.81,1.23C71.53,45.51,71.69,45.91,72.55,45.77Z"/><path class="cls-16" d="M31.56,45.12c-.15-.16-.2-.43-.47-.55a4.5,4.5,0,0,0-.9-.14c-1-.1-5.73-.31-5.8-.33,1.87,0,4.25-.26,6.11-.13.95.07,1.08.11,1,1.14Zm-14.34.83H30.78c.79,0,1-.13,1-1a1.91,1.91,0,0,0-.09-.88.71.71,0,0,0-.69-.35c-.16.08-13.79.08-14,0-.94,0-.82.7-.82,1.24C16.19,45.93,16.45,46,17.22,45.95Z"/><path class="cls-17" d="M77.08,17a.77.77,0,0,1,.46-1.2c0,.33-.13.35-.29.57s0,.43-.17.63Zm2.75-2.26a7.27,7.27,0,0,1-.76.39l-.16,0c-.88,0-1.25-.06-1.78.32a1.79,1.79,0,0,0-.79,1.31c-.46,3.48,4.29,3.83,6,1.42a2.35,2.35,0,0,0,.4-1.75c-.52.12-.62.29-.92-.32-.85.2-.6-.59-.59-.7-.23,0-.36-.1-.38-.33s.16-.28.27-.43C80.25,14.6,80.89,14.5,79.82,14.73Z"/><path class="cls-18" d="M24.28,50.11c0,.3.3.07.45.5a10.78,10.78,0,0,1,0,1.81c0,1.07-.3.7-.78.69-.23,0-.34.15-.61,0s-.23-.77-.24-1.15v-.86c0-.49,0-.76.49-.87v-.17c-.13,0-.05.06-.11,0,.11-.27,0,0,0-.58h.86c0,.64-.15.3,0,.59C24.32,50.12,24.5,50.1,24.28,50.11Zm2.88,3.2c.1-.84-1.78-3.63-2.73-4.56-.35-.35-.46-.51-.93-.12-.8.65-2.87,3.72-2.83,4.48,0,.36.74.39,1.06.44,1.12.15,4.54.23,5.43-.24Z"/><path class="cls-19" d="M94.93,18.12a2.92,2.92,0,0,0,.81,1.15c.22.17.89.72,1.29.6s.67-.57.91-.85a2.94,2.94,0,0,0,.72-1.11c.25-.77.3-2.31.88-2.74-.11-.13,0-.09-.41-.2l-.41-.13a7,7,0,0,1-.72-.31,2.77,2.77,0,0,1-1-.66c-.13-.13-.12-.15-.21-.24a16.53,16.53,0,0,0-1,2.25,20.61,20.61,0,0,1-.94,2.24Z"/><path class="cls-20" d="M98.54,49.88l.12.12,0,0,.39.31c.27.3-.12,1.32-.23,1.63a3.82,3.82,0,0,1-.45,1,1.06,1.06,0,0,1-1.07,0c-.89-.46-.56-1-.19-1.84a7.73,7.73,0,0,1,.48-1c.17-.29.08-.18.45-.24.2,0,.28-.14.48,0Zm-3.76,3.29c1.27.56,6.39.5,6.49-.06a3.57,3.57,0,0,0-.37-1,16.7,16.7,0,0,0-2.39-3.47c-.33-.29-.57-.4-.94,0a9.1,9.1,0,0,0-.72.78c-.39.49-2.17,2.94-2,3.82Z"/><path class="cls-18" d="M79.35,50.41c-.1-.74-.61-.42-.7-.8.22-.21.63.12.82.52a1.19,1.19,0,0,1,.26-.23c.14-.11.13-.15.27-.15a.73.73,0,0,1,0,.61.72.72,0,0,1,.58.23c-.09.21,0,0-.17.2.08.08.09.07.18.16-.13.15-.08,0-.09.24l.23,0v.26l.31,0c0,1.22-1.68,1.6-2.55.95s-.74-2.39.9-2Zm3.26,2.7c.1-.89-2-3.89-2.73-4.58-.34-.32-.49-.47-.93-.1a13.06,13.06,0,0,0-2.44,3.43c-.55,1.09-.71,1.31.67,1.49s4.39.24,5.44-.23Z"/><path class="cls-18" d="M61.85,50.43A4.83,4.83,0,0,1,61.94,52c0,.5,0,.77-.52.87a3.45,3.45,0,0,1-1.28,0c-.42-.13-.41-.49-.42-1a5.09,5.09,0,0,1,.05-1.32c.15-.52-.17-.68.48-.84a2.66,2.66,0,0,1,1.26,0c.47.15.28.39.34.64ZM64,53.1c.1-.79-1.67-3.33-2-3.79l-.31-.39c-.11-.13-.27-.27-.38-.38-.35-.35-.46-.51-.93-.12-.8.65-2.87,3.72-2.83,4.49s5.69.63,6.49.2Z"/><path class="cls-18" d="M40.87,50.69a13.89,13.89,0,0,1,1.6-1,2.2,2.2,0,0,0,1.11,1.48,3.31,3.31,0,0,1,.49.3l-.32.22.37.25-.17.1-.1.07.23.22a9.36,9.36,0,0,1-1.12.7c-.22.13-.35.31-.61.23a2.79,2.79,0,0,1-.57-.35,2.56,2.56,0,0,1-.81-1c-.21-.44,0-.24,0-.57a1.64,1.64,0,0,1,0-.33c0-.12-.06-.18-.08-.33Zm4.7,2.62c.1-.84-1.78-3.63-2.73-4.56-.35-.35-.46-.51-.93-.12-.8.65-2.87,3.72-2.83,4.48S44.78,53.74,45.57,53.31Z"/><path class="cls-21" d="M23.37,18.5c.24.05.33.22.28.5C23.29,19,23.33,18.83,23.37,18.5Zm-.66-2,.33-.41a1,1,0,0,1,.8-.27,1.18,1.18,0,0,1,.7.33c.22.11.57,0,.88.2a1.13,1.13,0,0,1-.1,2c-.82.39-1.06-.27-1.59-.25l-.27,0-.12,0c-.15-.06-.06,0-.09-.06A1.13,1.13,0,0,1,22.71,16.49Zm-1.61-.56L22.6,20l4.52-1.65L25.62,14.3Z"/><path class="cls-22" d="M21.59,12c0,.15.07.22.1.38a2.12,2.12,0,0,0-.91,2.58c.05.15.1.32.16.48a1.55,1.55,0,0,1,.15.5l4.52-1.63-.34-1a2.2,2.2,0,0,0-2.41-1.41c-.07-.13-.1-.25-.16-.38A3.86,3.86,0,0,0,21.59,12Z"/><path class="cls-22" d="M22.6,20c.25.41.68,2.65,2.15,2.18a1.28,1.28,0,0,0,.5-.25c.23-.2.23-.31.35-.4s1.86.21,2.05-.81a5.42,5.42,0,0,0-.54-2.38L22.6,20Z"/><path class="cls-23" d="M45.67,17.83c-.5.33-1,.6-1.53.9-1.7,1-1.58,1.16-2.39.71a5.66,5.66,0,0,1-2-1.68,11,11,0,0,0,1.31,1.11c1.53,1,1.14.78,3.09-.32.41-.23,1.27-.85,1.5-.71Zm-.12.36-2.69,1.64c-.42.24-.44.4-1,.15a6.59,6.59,0,0,1-2.33-1.92,3.44,3.44,0,0,1-.5-.91l0,0,.14.2A6.22,6.22,0,0,0,42,19.79c.62.27.72,0,1.8-.61A17.74,17.74,0,0,1,45.55,18.18Zm.12-.78c-.13.11-3.16,1.87-3.23,1.88-.48.09-2.43-1.36-2.83-2.17a8.2,8.2,0,0,0,1.31,1.15,5.35,5.35,0,0,0,.78.46c.83.42.74.22,2.43-.77.92-.54,1.11-.82,1.54-.56Zm-3.38-3.73.06.12.13.2a.28.28,0,0,1,.08.11s0,.05,0,0,0,0,0,0l.21.35c.08.08,0,0,.07.13a.94.94,0,0,1,.21.3c.09,0,.07,0,0,.07l.24.29c.23.06.08,0,.14.1l.26.26.08.09.29.16c.12.09,0-.12.11.13l.31.18.13.12c.17,0,.15.08.32.14l.11.11.46.26c-1,.5-2.08,1.23-3.07,1.78-.39.22-.55-.15-1.09-.29l-.1-.08a.06.06,0,0,1,0,0s0,0,0,0-.32-.14-.15-.24c0-.1.06-.1-.09-.07s0,0-.19,0c-.1-.14-.12-.12-.24-.22s-.05,0-.14-.11l-.27-.26c.06-.08-.12-.08.12-.05l0-.06,0-.15h0l-.2.18-.21-.22-.1-.09-.07-.1c-.11-.18-.15-.12-.13-.31l.33,0,.08-.25-.06,0h-.16s0,0-.05,0,0,0,0,0l.21.12c-.1.06.15.11-.15,0-.09,0-.06-.06-.09-.13l-.05.16c-.24-.06-.05.07-.2-.12a.52.52,0,0,1-.08-.19c-.14-.1-.07,0-.11-.17a5,5,0,0,1-.38-.91l3.33-2,.15.49ZM38.54,15l.15.77c0,.26,0,.11,0,.35s0,.1-.14.34c.14.28.18.52.5,1.17a5.4,5.4,0,0,0,1.14,1.45c.19.15.28.24.48.38l.77.52c.14.07.14.1.27.16.72.35.61.29,1.13,0l1.09-.63L45,18.84l1.06-.66c-.17,0-.16-.07-.32-.11,0,0,0,0,0,0s0,0,0,0l.32-.28c-.17,0-.16-.07-.32-.11.18-.24.25,0,.32-.32-.26,0-.25-.11-.48-.16a.61.61,0,0,1,.43-.27c-.13-.18-.4-.24-.61-.36l-1.19-.75a5.08,5.08,0,0,1-2-2.93,17.48,17.48,0,0,0-1.89,1.07c-.27.16-1.71,1-1.88,1.08Z"/><path class="cls-24" d="M59.34,16.27a15.34,15.34,0,0,0,.79,2.83c.23-.11,1.37-.26,1.79-.4s1.21-.49,1.67-.6l0-.25a16.44,16.44,0,0,0-.45-1.95l-.14-.5c-.07-.14,0,0-.06-.08-.37.06-1.24.43-1.68.58a6.29,6.29,0,0,1-1.88.37Z"/><path class="cls-18" d="M94.57,53.25c-.11-1.08,1.72-3.61,2.18-4.14.73-.83,1.12-1.36,1.83-.7a14.41,14.41,0,0,1,2.58,3.72c.6,1.29.42,1.39-1,1.55a20.8,20.8,0,0,1-4.48,0,2.08,2.08,0,0,1-1.14-.4Zm3.3-5.63c-1.16.56-3.39,4-3.78,5.4-.2.72.19.77.81.9a17.43,17.43,0,0,0,3.43.22,15,15,0,0,0,3.35-.31c.3-.08.45-.13.42-.48a3.15,3.15,0,0,0-.23-.7,10.56,10.56,0,0,0-.62-1.21c-.31-.54-2.48-4.26-3.39-3.82Z"/><path class="cls-18" d="M82.83,53.18c-.83.69-4.5.53-5.7.37s-1.49-.4-.9-1.61a13.57,13.57,0,0,1,2.6-3.69.7.7,0,0,1,1.07,0,6.57,6.57,0,0,1,.75.81c.45.57,2.27,3.12,2.18,4.13Zm-7.42.28c1.31.81,5.21.6,6.61.44.4,0,1.27-.1,1.42-.4s-.27-1.12-.39-1.35a21.14,21.14,0,0,0-2.12-3.37,7.23,7.23,0,0,0-.86-1c-.83-.69-1.23-.19-2.1.87-.52.63-2.68,3.58-2.56,4.79Z"/><path class="cls-18" d="M42.11,48.27c.28-.13.36-.09.59.08a4.93,4.93,0,0,1,1.14,1.23,17.22,17.22,0,0,1,1.23,1.9c.38.69,1.14,1.85.4,2.12a17.13,17.13,0,0,1-5.84.09c-1-.2-1-.61-.29-1.86a13.91,13.91,0,0,1,2.31-3.23l.2-.18C42,48.3,42,48.33,42.11,48.27Zm4.28,5.49c.22-1.08-2.5-5-3.39-5.75-.47-.38-.67-.52-1.21,0a16.38,16.38,0,0,0-3,4.25c-.71,1.43-.67,1.66,1,1.88C41.2,54.3,45.3,54.4,46.39,53.76Z"/><path class="cls-18" d="M23.7,48.27c.37-.18.71.1,1,.45a16.36,16.36,0,0,1,2.47,3.83c.2.47.36.86-.14,1a11.42,11.42,0,0,1-2.85.29,14.7,14.7,0,0,1-3-.2c-.48-.1-.86-.18-.74-.76a12.46,12.46,0,0,1,2.76-4.34c.3-.27.14-.17.46-.32ZM28,53.76c.21-1-2.06-4.2-2.51-4.76-.67-.82-1.27-1.77-2.06-1.06a16.26,16.26,0,0,0-3,4.24c-.7,1.39-.75,1.68.91,1.91,1.45.2,5.59.3,6.68-.34Z"/><path class="cls-18" d="M60.52,48.05c.28-.13.36-.09.59.08a11,11,0,0,1,2.37,3.12c.38.69,1.14,1.85.4,2.12a17.14,17.14,0,0,1-5.84.09c-.48-.1-.86-.18-.74-.76.21-1,2.13-4.14,3.22-4.66Zm4.28,5.49c.21-1-2.07-4.21-2.53-4.79a6.89,6.89,0,0,0-.87-1c-.47-.38-.67-.52-1.21,0a16.38,16.38,0,0,0-3,4.25c-.71,1.42-.67,1.66,1,1.88C59.61,54.08,63.71,54.18,64.8,53.55Z"/><path class="cls-25" d="M58.61,14.71l.89-.14c.28-.12,1-.25,1.35-.35s1.07-.39,1.32-.41a2,2,0,0,1,.74,1.5c.08.07,0-.06.06.08l.14.5a16.44,16.44,0,0,1,.45,1.95l.09.27c.12.82-.2,1-.95,1.29a20,20,0,0,1-2.1.57,1.16,1.16,0,0,1-1.18-.16.85.85,0,0,1-.36-.66c-.07-.06,0,.06-.06-.08L59,19c0-.1,0-.21-.07-.31a18.11,18.11,0,0,1-.43-1.8s0,0,0,0l-.11-.45c0-.18-.07-.33-.11-.53a1.73,1.73,0,0,1,.16-1.08l.25,0Zm-.72-.23c-.16-.7,1.39-1,1.89-1.12s2.06-.6,2.54-.15c-.05.52-1.48.79-1.94.91a7.51,7.51,0,0,1-2.48.36Zm-.25-.29c0,.2,0,.5.38.54a2.32,2.32,0,0,0,0,1.65c.1.43.72,3,.87,3.28.33.68.79.67,1.37.67a9.42,9.42,0,0,0,3.24-.9c.87-.54.46-1.47.25-2.32l-.32-1.29a5.78,5.78,0,0,0-.57-1.8,1.6,1.6,0,0,0-.39-.42c.88-1.66-3.78-.3-4.49.19-.11.08-.3.26-.3.4Z"/><path class="cls-26" d="M101.17,13.74c-.5.4-1.39.16-2,0a2.59,2.59,0,0,1-1.56-1c-.53-1.21,1.41-.66,2-.43a5.09,5.09,0,0,1,1.08.54c.29.2.7.41.49.91Zm-3.71-1.37v.29a1.68,1.68,0,0,0-.61.88l0,.09c.09.09.08.11.21.24a2.77,2.77,0,0,0,1,.66,7,7,0,0,0,.72.31l.41.13c.39.1.3.07.41.2.23-.1.23,0,.48,0h.27l.24.09c.15-.12.07-.09.25-.1l.07-.07a1.71,1.71,0,0,0,0-1,1.17,1.17,0,0,0,.43-.2s0,0,.07-.08a.47.47,0,0,0,0-.47,4.29,4.29,0,0,0-2.58-1.35c-.8-.12-.82-.11-1.28.2l0,.22Z"/><path class="cls-27" d="M58.61,14.71a4.72,4.72,0,0,0-.16,2.14,18.11,18.11,0,0,0,.43,1.8c0,.1,0,.21.07.31l0,.11c.06.14,0,0,.06.08l.14,0,.22.63a1.16,1.16,0,0,0,1.18.16,2.94,2.94,0,0,1-.46-.89,15.34,15.34,0,0,1-.79-2.83,2.75,2.75,0,0,1,.16-1.69Z"/><path class="cls-28" d="M62.23,14.37a.8.8,0,0,1,.36.74l-.54.3c-.22-.38-.08-.34-.43-.66a1.59,1.59,0,0,1,.6-.38Zm-2.73.21a2.75,2.75,0,0,0-.16,1.69,6.29,6.29,0,0,0,1.88-.37c.45-.15,1.31-.52,1.68-.58a2,2,0,0,0-.74-1.5c-.25,0-1,.32-1.32.41s-1.07.23-1.35.35Z"/><path class="cls-19" d="M100.52,15.23a2,2,0,0,0-1,1c-.48.92-.74,1.84-1.12,2.65A4.19,4.19,0,0,1,97.68,20s0,0,0,0,0,0,0,0l.34,0c1-.12.88-.45,1.55-2.05.21-.49.4-1,.6-1.45l.44-1.07c.07-.16.13-.24.08-.34s-.11,0-.25.1Z"/><path class="cls-2" d="M64,53.1c-.8.43-6.44.62-6.49-.2s2-3.84,2.83-4.49c.47-.38.58-.23.93.12.11.1.27.25.38.38l.31.39c.37.46,2.14,3,2,3.79Zm-3.46-5c-1.09.52-3,3.64-3.22,4.66-.12.58.26.65.74.76a17.15,17.15,0,0,0,5.84-.09c.75-.27,0-1.43-.4-2.12a11,11,0,0,0-2.37-3.12c-.24-.17-.31-.22-.59-.08Z"/><path class="cls-29" d="M94.78,53.17c-.12-.89,1.66-3.34,2-3.82a9.1,9.1,0,0,1,.72-.78c.37-.38.61-.26.94,0a16.7,16.7,0,0,1,2.39,3.47,3.57,3.57,0,0,1,.37,1c-.1.56-5.21.62-6.49.06Zm-.21.07a2.08,2.08,0,0,0,1.14.4,20.8,20.8,0,0,0,4.48,0c1.4-.16,1.58-.26,1-1.55a14.41,14.41,0,0,0-2.58-3.72c-.72-.65-1.1-.13-1.83.7-.46.53-2.29,3.06-2.18,4.14Z"/><path class="cls-3" d="M45.57,53.31c-.79.43-6.44.62-6.49-.2s2-3.84,2.83-4.48c.47-.38.58-.23.93.12C43.79,49.68,45.67,52.47,45.57,53.31Zm-3.46-5c-.14.06-.12,0-.26.14l-.2.18a13.91,13.91,0,0,0-2.31,3.23c-.67,1.26-.71,1.66.29,1.86a17.13,17.13,0,0,0,5.84-.09c.75-.27,0-1.42-.4-2.12a17.22,17.22,0,0,0-1.23-1.9,4.93,4.93,0,0,0-1.14-1.23C42.47,48.18,42.39,48.13,42.11,48.27Z"/><path class="cls-30" d="M27.16,53.31c-.89.48-4.31.4-5.43.24-.33,0-1-.08-1.06-.44,0-.77,2-3.84,2.83-4.48.47-.38.58-.23.93.12.94.93,2.83,3.72,2.73,4.56Zm-3.46-5c-.32.15-.16.05-.46.32a12.46,12.46,0,0,0-2.76,4.34c-.12.58.25.66.74.76a14.7,14.7,0,0,0,3,.2,11.42,11.42,0,0,0,2.85-.29c.51-.18.34-.58.14-1a16.36,16.36,0,0,0-2.47-3.83C24.41,48.37,24.08,48.09,23.7,48.27Z"/><path class="cls-5" d="M82.61,53.11c-1,.47-4.2.39-5.44.23s-1.21-.4-.67-1.49A13.06,13.06,0,0,1,79,48.42c.45-.37.59-.21.93.1.74.69,2.83,3.69,2.73,4.58Zm.21.07c.1-1-1.73-3.56-2.18-4.13a6.57,6.57,0,0,0-.75-.81.7.7,0,0,0-1.07,0,13.57,13.57,0,0,0-2.6,3.69c-.58,1.2-.43,1.42.9,1.61s4.87.32,5.7-.37Z"/><path class="cls-2" d="M60.29,51.12l0,1.24c.21,0,.47,0,.71,0s.45-.06.68-.06c-.06.41-.26.39-.68.42a1.9,1.9,0,0,1-1-.14L60,52.31c0-.36-.16-1.32,0-1.54a.3.3,0,0,1,.42-.33c.24.09-.1,0,.16.1a4,4,0,0,0,1.08-.07,1.35,1.35,0,0,1,.08.58,4.58,4.58,0,0,1-1.44.06Zm1.35-1c0,.23,0,.21-.32.24l-.49,0c-.51,0-.74,0-.8-.26A2,2,0,0,1,61.63,50.07Zm-1.38-.31c-.66.16-.33.32-.48.84a5.09,5.09,0,0,0-.05,1.32c0,.47,0,.82.42,1a3.45,3.45,0,0,0,1.28,0c.49-.09.52-.37.52-.87a4.83,4.83,0,0,0-.09-1.61c-.06-.25.13-.49-.34-.64a2.66,2.66,0,0,0-1.26,0Z"/><path class="cls-18" d="M78.42,51.28a.4.4,0,0,1,.37-.57c0,.15-.16.36-.25.48S78.53,51.23,78.42,51.28Zm2.34.49c-.1-.15-.08-.07-.23-.23s-.18-.16-.24-.24-.06-.55-.14-.7c-.34,0-.55.09-.78.05s-.37-.2-.72-.06a1,1,0,0,0-.35,1.35A1.47,1.47,0,0,0,80.76,51.77Z"/><path class="cls-3" d="M41.34,52.11l.22.19c1.36,1.29,1.36-.06,2.08.07a4.18,4.18,0,0,1-1.25.71,2.22,2.22,0,0,1-1.06-1Zm0,0c-.09-.07,0,.16-.09-.18Zm.05-.39c1.08.82.85.87,1.68.38.24-.14.34-.31.61-.15-1.23.87-1.21.83-1.83.32-.41-.33-.32-.39-.46-.56Zm-.27-.92a7.49,7.49,0,0,1,1.19-.75c.27.26.13.61,1.12,1.29l.1.07.09.08a7.79,7.79,0,0,1-.74.46c-.34.21-.36.32-.74.08a2.28,2.28,0,0,1-1-1.24Zm-.25-.11c0,.14.07.21.08.33a1.64,1.64,0,0,0,0,.33c0,.33-.19.13,0,.57a2.56,2.56,0,0,0,.81,1,2.79,2.79,0,0,0,.57.35c.25.08.39-.1.61-.23a9.36,9.36,0,0,0,1.12-.7l-.23-.22.1-.07.17-.1-.37-.25.32-.22a3.31,3.31,0,0,0-.49-.3,2.2,2.2,0,0,1-1.11-1.48,13.89,13.89,0,0,0-1.6,1Z"/><path class="cls-31" d="M100.84,15.05l-.07.07c.06.11,0,.18-.08.34l-.44,1.07c-.2.5-.39,1-.6,1.45C99,19.6,99.12,19.93,98.11,20l-.34,0s0,0,0,0,0,0,0,0l-.05,0a1.82,1.82,0,0,1-.53.48l.07,0,.12,0,.89,0c.9,0,1.07-.45,1.36-1.11a25.06,25.06,0,0,0,1.6-4.54l-.29.11Z"/><path class="cls-28" d="M60.13,19.09a2.94,2.94,0,0,0,.46.89,20,20,0,0,0,2.1-.57c.74-.28,1.07-.47.95-1.29l-.09-.27,0,.25c-.46.11-1.16.43-1.67.6s-1.57.29-1.79.4Z"/><path class="cls-29" d="M97.77,52.87a3.09,3.09,0,0,0,.48-.92c.17-.42.21-.67.64-.84a6.45,6.45,0,0,1-.38,1.09c-.18.44-.17.71-.74.66Zm-.32-.14c-.56-.19-.51-.52-.36-.93a4.78,4.78,0,0,1,.5-1.14s0,0,0,0l.68.37L98,52C97.9,52.36,97.65,52.51,97.45,52.74Zm.95-2.21-.06,0c-.3-.16-.17,0-.23-.24.46.07.45.14.5.25l-.21,0Zm-.07-.43c.22-.08.15,0,.19.08l-.16-.05S98.34,50.11,98.32,50.1Zm.07.43a.64.64,0,0,0,.48.11c.26,0,.12-.16.12-.16s-.18-.06-.33-.28a.44.44,0,0,1,.43.45c-.67.34-1.82-.55-1.18-.67.24,0,.29.07.29.07l-.18,0h-.16c0,.32.26.41.54.42Zm.27-.53a.45.45,0,0,1-.38-.11h.25c-.2-.13-.27,0-.48,0-.37.06-.28,0-.45.24a7.73,7.73,0,0,0-.48,1c-.37.88-.7,1.38.19,1.84a1.06,1.06,0,0,0,1.07,0,3.82,3.82,0,0,0,.45-1c.12-.31.51-1.33.23-1.63L98.69,50l0,0Z"/><path class="cls-32" d="M97.6,12.72a2.59,2.59,0,0,0,1.56,1c.62.2,1.51.43,2,0,0-.52-.44-.73-.87-1l-.18-.1c-.49-.15-.15,0-.27.05.1.27-.12.36-.28.47.21.06.35.14.3.41-.39.19-1.5-.2-1.4-.65.18-.11.21-.08.44-.06,0-.35-.07-.38.17-.48-.17-.25-.62-.25-.92-.24-.52,0-.62.06-.58.57Z"/><path class="cls-33" d="M61,44c.06,0,0,0,.12,0l.37,0c1.72.05,4,.13,5.61.31.57.06,1,0,1.19.41,0,.06.05.12.09.18l.14.19a3.2,3.2,0,0,0,0-.85c-.08-.3-.19-.34-.51-.39A53,53,0,0,0,61,44Z"/><path class="cls-34" d="M42.93,44.06a30.48,30.48,0,0,0,3.94.25c.61,0,1.28.08,1.88.16a2.11,2.11,0,0,1,.84.17c.27.19.24.43.42.62,0-.63.05-1.14-.46-1.24A50.86,50.86,0,0,0,42.93,44.06Z"/><path class="cls-35" d="M98.34,44.15c.39.13,3.22.16,3.93.21s1.29.09,1.94.15c1,.09.95.1,1.2.62l0,.08s0,0,0,0,0,0,0,0c.06-1,0-1.18-.93-1.26-.68-.06-1.4-.06-2.08,0-1.39,0-2.76.1-4.14.16Z"/><path class="cls-18" d="M42.26,51.92a1.75,1.75,0,0,1,.82-.51A1.83,1.83,0,0,1,42.26,51.92ZM42,51.66c0-.16,0-.07.33-.3l.38-.21C42.72,51.37,42.08,51.64,42,51.66Zm-.25-.34a3.12,3.12,0,0,1,.78-.47c0,.17,0,.11-.38.33S41.85,51.41,41.74,51.32Zm-.21-.23c.06-.17,0-.08.2-.22s.52-.4.66-.31A3.49,3.49,0,0,1,41.53,51.08Zm-.41-.28a2.28,2.28,0,0,0,1,1.24c.38.24.4.13.74-.08a7.79,7.79,0,0,0,.74-.46l-.09-.08-.1-.07c-1-.68-.86-1-1.12-1.29a7.49,7.49,0,0,0-1.19.75Z"/><path class="cls-5" d="M80.76,51.77a1.47,1.47,0,0,1-2.47.18,1,1,0,0,1,.35-1.35c.35-.14.44,0,.72.06s.43-.1.78-.05c.09.15,0,.5.14.7s.13.12.24.24S80.66,51.61,80.76,51.77Zm-2.11-2.16c.08.38.6.06.7.8-1.64-.36-1.68,1.45-.9,2s2.56.27,2.55-.95l-.31,0v-.26l-.23,0c0-.23,0-.1.09-.24-.09-.09-.1-.08-.18-.16.15-.18.08,0,.17-.2a.72.72,0,0,0-.58-.23.73.73,0,0,0,0-.61c-.14,0-.13,0-.27.15a1.19,1.19,0,0,0-.26.23c-.2-.4-.6-.73-.82-.52Z"/><path class="cls-36" d="M79.67,44c1.62.21,3.89.14,5.91.36.75.08,1.08.08,1.27.8a3,3,0,0,0,0-.79c-.07-.33-.15-.36-.49-.42a56.35,56.35,0,0,0-6.64.05Z"/><path class="cls-37" d="M58.31,14.08a10,10,0,0,1,3.63-.91A7.74,7.74,0,0,1,58.31,14.08Zm-.42.41a7.51,7.51,0,0,0,2.48-.36c.46-.12,1.88-.4,1.94-.91-.47-.45-2,0-2.54.15s-2,.42-1.89,1.12Z"/><path class="cls-38" d="M31.56,45.12c0-1-.1-1.07-1-1.14-1.86-.14-4.24.08-6.11.13.06,0,4.77.23,5.8.33a4.5,4.5,0,0,1,.9.14c.27.12.32.39.47.55Z"/><path class="cls-39" d="M39.19,16.05a.66.66,0,0,0,.42-.28l-.15-.28-.07.11s0,0,0,0,0,0,0,0l-.05,0c-.06,0,.15.11-.13,0s0,0-.1-.09c.08-.21.05-.11.13-.16s.12,0,.2-.14l-.13-.41c.25.1.15.18.28.37l2.75-1.64-.15-.49-3.33,2a5,5,0,0,0,.38.91Z"/><path class="cls-20" d="M97,19.87v.08a1.07,1.07,0,0,0,.61.07l.05,0a4.19,4.19,0,0,0,.72-1.16c.37-.81.64-1.73,1.12-2.65a2,2,0,0,1,1-1l-.24-.09H100c-.25,0-.25-.08-.48,0-.57.43-.62,2-.88,2.74A2.94,2.94,0,0,1,97.94,19C97.69,19.3,97.39,19.77,97,19.87Z"/><path class="cls-39" d="M45.67,17.4c-.43-.26-.62,0-1.54.56-1.7,1-1.6,1.19-2.43.77a5.35,5.35,0,0,1-.78-.46,8.2,8.2,0,0,1-1.31-1.15c.4.81,2.35,2.26,2.83,2.17.06,0,3.1-1.77,3.23-1.88Z"/><path class="cls-40" d="M78.75,14.57a2.83,2.83,0,0,0,.13.3A.75.75,0,0,0,79,15c.08.11,0,.05.11.11a7.27,7.27,0,0,0,.76-.39c.15-.29.32-.46.21-.85a2,2,0,0,0-.42-.82c-.54.8-.87.85-.86,1.51Z"/><path class="cls-39" d="M42.49,18.27c.17.13.09,0,.12.18l-.28-.11h-.13c-.05.31,0,.1-.12.18s0,.06-.16,0,0-.09,0-.16c.14-.33-.37.08.16-.1.1,0,0,.1.08,0s0,0,0,0l-.36-.17a.39.39,0,0,0-.24.1l-.1.07c-.11.1,0,0-.09.12.55.14.7.51,1.09.29,1-.56,2.11-1.28,3.07-1.78l-.46-.26c-.33.33-2.54,1.42-2.62,1.65Z"/><path class="cls-20" d="M97.45,52.74c.2-.23.45-.37.58-.69l.28-1-.68-.37s0,0,0,0a4.78,4.78,0,0,0-.5,1.14C96.93,52.21,96.88,52.54,97.45,52.74Z"/><path class="cls-41" d="M24,16.86a1.44,1.44,0,0,1,.5-.45l.07,0a1,1,0,0,1,.69.05,1,1,0,0,1,.46.46l0,.07V17a.86.86,0,0,1-.06.7c-.18.29-.17.26-.48.43h0a1,1,0,0,1-.63,0h-.09c-.1-.1-.17-.15-.24-.23s-.17-.22-.23-.29v-.09a1.22,1.22,0,0,1,0-.71ZM23,16.08l0,.16a2.86,2.86,0,0,1,.33-.16l.05-.05a1.08,1.08,0,0,1,.64,0l.07,0c.15.07.09,0,.2.15a.8.8,0,0,1-.33.21,1.68,1.68,0,0,0-.31.7,1.47,1.47,0,0,0,.12.72h-.19c0,.23,0,0,.07.2.53,0,.77.64,1.59.25a1.13,1.13,0,0,0,.1-2c-.31-.2-.66-.09-.88-.2a1.18,1.18,0,0,0-.7-.33,1,1,0,0,0-.8.27Z"/><path class="cls-4" d="M99,23.4H97.69v1.08h.86v-.16c.33,0,.39-.05.7-.05a8.61,8.61,0,0,0-.11-.92c-.07,0-.06.05-.16.05Z"/><path class="cls-13" d="M80.25,23.4H79v1.08h.86v-.16c.33,0,.39-.05.7-.05a8.62,8.62,0,0,0-.11-.92c-.07,0-.06.05-.16.05Z"/><path class="cls-6" d="M24.81,23.4H23.52v1.08h.86v-.16c.33,0,.39-.05.7-.05a8.62,8.62,0,0,0-.11-.92c-.07,0-.06.05-.16.05Z"/><path class="cls-42" d="M43.22,23.4H41.93v1.08h.86v-.16c.33,0,.39-.05.7-.05a8.62,8.62,0,0,0-.11-.92c-.07,0-.06.05-.16.05Z"/><path class="cls-43" d="M61.63,23.4H60.34v1.08h.86v-.16c.33,0,.39-.05.7-.05a8.62,8.62,0,0,0-.11-.92c-.07,0-.06.05-.16.05Z"/><path class="cls-44" d="M82,38.13c2.25.28,2.59.7,3.47,2.36a4.11,4.11,0,0,0-.75-1.85,1.3,1.3,0,0,0-.78-.51c-.3-.07-1.61-.26-1.94,0Z"/><path class="cls-39" d="M39.84,15.85l.2.33a5.37,5.37,0,0,0,.73-.41l.68-.4,1.36-.82-.21-.35-2.74,1.65Z"/><path class="cls-39" d="M40.76,17l.3.28,2.7-1.63-.26-.26a11.63,11.63,0,0,0-1.42.8l-.67.4A4.76,4.76,0,0,0,40.76,17Z"/><path class="cls-39" d="M40.09,16.3c.07.08.15.17.22.26a10.56,10.56,0,0,0,1.38-.78c.45-.26.9-.56,1.37-.8a.94.94,0,0,0-.21-.3,11.43,11.43,0,0,0-1.41.81c-.43.26-1,.54-1.36.81Z"/><path class="cls-45" d="M104.1,40.54a4.15,4.15,0,0,0-1-2,4.48,4.48,0,0,0-2.64-.33c1.29.37,2.15.08,3.08,1.4Z"/><path class="cls-39" d="M40.41,16.67c.06.11,0,0,.1.13l.14.13c.19-.06,2.55-1.45,2.71-1.6l-.24-.29Z"/><path class="cls-39" d="M41.12,17.38a.59.59,0,0,0,.35.24c.46-.25.9-.53,1.36-.8l.67-.41c.34-.2.57-.27.64-.47l-.29-.16a13.59,13.59,0,0,0-1.36.8c-.44.26-.94.6-1.36.8Z"/><path class="cls-46" d="M26.77,38.34c2.46.34,2.44.74,3.41,2.35a4.19,4.19,0,0,0-.92-2,2.47,2.47,0,0,0-1.76-.46c-.58,0-.5,0-.69.07Z"/><path class="cls-31" d="M96.4,20.23a2.57,2.57,0,0,0,.63-.28v-.08c-.4.12-1.07-.42-1.29-.6a2.92,2.92,0,0,1-.81-1.15l0,0a0,0,0,0,0,0,0l-.08.33c0,.76,1.14,1.66,1.61,1.77Z"/><path class="cls-39" d="M42,18l.37.18a11.85,11.85,0,0,1,1.33-.82l.67-.4c.28-.17.55-.27.63-.46-.17-.06-.15-.1-.32-.14-.47.25-.91.54-1.38.82l-.68.4C42.43,17.69,42.09,17.84,42,18Z"/><path class="cls-25" d="M58.31,14.08a7.74,7.74,0,0,0,3.63-.91A10,10,0,0,0,58.31,14.08Z"/><path class="cls-39" d="M39.62,15.46l.09.27,2.65-1.53c.16-.14.14.06.11-.2l-.13-.2a5.52,5.52,0,0,0-.7.39l-.71.42a7.67,7.67,0,0,0-1.33.85Z"/><path class="cls-21" d="M21.42,11.67a3.55,3.55,0,0,1,1.18-.46l.11,0a4.23,4.23,0,0,1-.27-.75l-1.35.48A1.65,1.65,0,0,0,21.42,11.67Z"/><path class="cls-39" d="M41.54,17.7l.34.19,1.37-.81.68-.4c.18-.11.54-.26.62-.43l-.31-.18a12.37,12.37,0,0,1-1.34.82c-.45.27-.92.53-1.36.81Z"/><path class="cls-18" d="M60,50.77l0,.31.33,0a4.58,4.58,0,0,0,1.44-.06,1.35,1.35,0,0,0-.08-.58,4,4,0,0,1-1.08.07c-.26-.08.08,0-.16-.1a.3.3,0,0,0-.42.33Z"/><path class="cls-30" d="M24.55,50.77c.07.16.06.07,0,.27h.13v1h-.13c0,.19.11.76,0,.86s0,0-.11.06-.22-.05-.42-.06c-.55,0-.61.51-.63-.84L23.15,52c0,.39-.1,1,.24,1.15s.39,0,.61,0c.48,0,.8.38.78-.69a10.78,10.78,0,0,0,0-1.81c-.15-.43-.42-.2-.45-.5h-.23c.05.59.42.17.49.68Z"/><path class="cls-18" d="M24.53,52.89v-.81l-1-.06h-.07l-.14,0c0,1.35.09.82.63.84.2,0,.24.1.42.06s0,0,.11-.06Z"/><path class="cls-13" d="M86.17,14.3a4,4,0,0,1,.22,1l.91-.12A8,8,0,0,0,87,14.09,6.64,6.64,0,0,0,86.17,14.3Z"/><path class="cls-47" d="M67.55,14.3a4,4,0,0,1,.22,1l.91-.12a8,8,0,0,0-.27-1.12A6.64,6.64,0,0,0,67.55,14.3Z"/><path class="cls-42" d="M49.14,14.3a4,4,0,0,1,.22,1l.91-.12A8,8,0,0,0,50,14.09,6.64,6.64,0,0,0,49.14,14.3Z"/><path class="cls-6" d="M30.73,14.3a4,4,0,0,1,.22,1l.91-.12a8,8,0,0,0-.27-1.12A6.64,6.64,0,0,0,30.73,14.3Z"/><path class="cls-47" d="M61.74,9.35c.44,0,.66.15,1,.16A4.65,4.65,0,0,0,63,8.65c-.35,0-.76-.18-1.13-.22,0,.29-.11.61-.11.92Z"/><path class="cls-13" d="M80.36,9.35c.44,0,.66.15,1,.16a4.65,4.65,0,0,0,.22-.86c-.35,0-.76-.18-1.13-.22C80.46,8.72,80.36,9.05,80.36,9.35Z"/><path class="cls-42" d="M43.33,9.35c.44,0,.66.15,1,.16a4.65,4.65,0,0,0,.22-.86c-.35,0-.76-.18-1.13-.22,0,.29-.11.61-.11.92Z"/><path class="cls-6" d="M24.92,9.35c.44,0,.66.15,1,.16a4.65,4.65,0,0,0,.22-.86c-.35,0-.76-.18-1.13-.22C25,8.72,24.92,9.05,24.92,9.35Z"/><path class="cls-4" d="M99.09,9.35c.44,0,.66.15,1,.16a4.65,4.65,0,0,0,.22-.86c-.35,0-.76-.18-1.13-.22C99.19,8.72,99.09,9.05,99.09,9.35Z"/><path class="cls-4" d="M102.75,11c.54.36.5.5.7.65.21-.06.3-.27.7-.54-.14-.2-.67-.79-.92-.81-.08.3-.4.39-.48.7Z"/><path class="cls-13" d="M84,11c.54.36.5.5.7.65.21-.06.3-.27.7-.54-.14-.2-.67-.79-.92-.81-.08.3-.4.39-.48.7Z"/><path class="cls-4" d="M90.91,19.69a4,4,0,0,0,.54,1,1.32,1.32,0,0,0,.38-.21l.37-.22-.48-.92c-.27.06-.54.26-.81.32Z"/><path class="cls-42" d="M47,11c.54.36.5.5.7.65.21-.06.3-.27.7-.54a3.07,3.07,0,0,0-.42-.44c-.15-.15-.24-.34-.5-.36-.08.3-.4.39-.48.7Z"/><path class="cls-47" d="M65.4,11c.54.36.5.5.7.65.21-.06.3-.27.7-.54a3.07,3.07,0,0,0-.42-.44c-.15-.15-.24-.34-.5-.36-.08.3-.4.39-.48.7Z"/><path class="cls-4" d="M104.58,19.31a4.12,4.12,0,0,0,.81.32,4.5,4.5,0,0,0,.38-1.08,6.64,6.64,0,0,0-.86-.22A6.32,6.32,0,0,1,104.58,19.31Z"/><path class="cls-47" d="M67.23,19.31a4.12,4.12,0,0,0,.81.32,4.5,4.5,0,0,0,.38-1.08,6.64,6.64,0,0,0-.86-.22A6.32,6.32,0,0,1,67.23,19.31Z"/><path class="cls-42" d="M48.82,19.31a4.12,4.12,0,0,0,.81.32A4.5,4.5,0,0,0,50,18.56a6.64,6.64,0,0,0-.86-.22A6.32,6.32,0,0,1,48.82,19.31Z"/><path class="cls-13" d="M85.85,19.31a4.12,4.12,0,0,0,.81.32A4.5,4.5,0,0,0,87,18.56a6.64,6.64,0,0,0-.86-.22A6.32,6.32,0,0,1,85.85,19.31Z"/><path class="cls-6" d="M30.41,19.31a4.12,4.12,0,0,0,.81.32,4.5,4.5,0,0,0,.38-1.08,6.64,6.64,0,0,0-.86-.22,6.32,6.32,0,0,1-.32,1Z"/><path class="cls-4" d="M94.79,9.08a2.85,2.85,0,0,0,.32.81c.26,0,.65-.25,1-.32,0-.34-.19-.56-.22-.86a4.4,4.4,0,0,0-.53.17A4.86,4.86,0,0,1,94.79,9.08Z"/><path class="cls-6" d="M28.58,11c.54.36.5.5.7.65.19-.05.2-.12.34-.26a3.16,3.16,0,0,1,.36-.28,3.07,3.07,0,0,0-.42-.44c-.15-.15-.24-.34-.5-.36-.08.3-.4.39-.48.7Z"/><path class="cls-6" d="M20.61,9.08a2.85,2.85,0,0,0,.32.81c.26,0,.65-.25,1-.32,0-.34-.19-.56-.22-.86-.44.1-.83.32-1.08.38Z"/><path class="cls-47" d="M57.43,9.08a2.85,2.85,0,0,0,.32.81c.26,0,.65-.25,1-.32,0-.34-.19-.56-.22-.86-.44.1-.83.32-1.08.38Z"/><path class="cls-13" d="M76.05,9.08a2.85,2.85,0,0,0,.32.81c.26,0,.65-.25,1-.32,0-.34-.19-.56-.22-.86-.44.1-.83.32-1.08.38Z"/><path class="cls-42" d="M39,9.08a2.85,2.85,0,0,0,.32.81c.26,0,.65-.25,1-.32,0-.34-.19-.56-.22-.86-.44.1-.83.32-1.08.38Z"/><path class="cls-4" d="M104.91,14.3a4,4,0,0,1,.22,1c.3,0,.58-.1.86-.11a3.64,3.64,0,0,0-.22-1.13A6.64,6.64,0,0,0,104.91,14.3Z"/><path class="cls-6" d="M19.7,23.13c.23.06.7.41,1,.48a2.85,2.85,0,0,0,.32-.81,9.13,9.13,0,0,0-.86-.43,1,1,0,0,0-.25.34A1.54,1.54,0,0,0,19.7,23.13Z"/><path class="cls-42" d="M35.14,19.69a4,4,0,0,0,.54,1l.75-.43L36,19.36c-.27.06-.54.26-.81.32Z"/><path class="cls-13" d="M72.18,19.69a4,4,0,0,0,.54,1l.75-.43L73,19.36c-.27.06-.54.26-.81.32Z"/><path class="cls-47" d="M53.55,19.69a4,4,0,0,0,.54,1l.75-.43-.48-.92c-.27.06-.54.26-.81.32Z"/><path class="cls-6" d="M16.74,19.69a4,4,0,0,0,.54,1l.75-.43-.48-.92c-.27.06-.54.26-.81.32Z"/><path class="cls-47" d="M56.51,23.13a3.62,3.62,0,0,1,.5.25,2.26,2.26,0,0,0,.52.23,2.85,2.85,0,0,0,.32-.81,9.12,9.12,0,0,0-.86-.43A2.8,2.8,0,0,0,56.51,23.13Z"/><path class="cls-4" d="M93.87,23.13a3.62,3.62,0,0,1,.5.25,2.26,2.26,0,0,0,.52.23,2.85,2.85,0,0,0,.32-.81,9.13,9.13,0,0,0-.86-.43A2.8,2.8,0,0,0,93.87,23.13Z"/><path class="cls-42" d="M38.11,23.13c.23.06.7.41,1,.48a2.85,2.85,0,0,0,.32-.81,9.13,9.13,0,0,0-.86-.43A2.8,2.8,0,0,0,38.11,23.13Z"/><path class="cls-13" d="M75.14,23.13c.23.06.7.41,1,.48a2.85,2.85,0,0,0,.32-.81,9.13,9.13,0,0,0-.86-.43,2.81,2.81,0,0,0-.48.75Z"/><path class="cls-42" d="M46.18,22.32a8.82,8.82,0,0,1,.48.75,7.87,7.87,0,0,1,.92-.65c-.09-.33-.4-.39-.48-.7-.24,0-.08,0-.26.11l-.65.48Z"/><path class="cls-4" d="M101.94,22.32a8.82,8.82,0,0,1,.48.75l.65-.48c.14-.12.07-.12.26-.17-.09-.33-.4-.39-.48-.7-.24,0-.13,0-.48.28l-.44.32Z"/><path class="cls-4" d="M90.16,15.86v.59L91,16.4c0-.36.05-.6.05-1-.26,0-.58-.11-.86-.11,0,.27-.05.29-.05.59Z"/><path class="cls-47" d="M52.8,15.86v.59l.86-.05c0-.36.05-.6.05-1-.26,0-.58-.11-.86-.11,0,.27-.05.29-.05.59Z"/><path class="cls-6" d="M16,15.86v.59l.86-.05c0-.36.05-.6.05-1-.26,0-.58-.11-.86-.11,0,.27-.05.29-.05.59Z"/><path class="cls-13" d="M71.42,15.86v.59l.86-.05c0-.36.05-.6.05-1-.26,0-.58-.11-.86-.11,0,.27-.05.29-.05.59Z"/><path class="cls-42" d="M34.39,15.86v.59l.86-.05c0-.36.05-.6.05-1-.26,0-.58-.11-.86-.11,0,.27-.05.29-.05.59Z"/><path class="cls-6" d="M27.77,22.32a8.82,8.82,0,0,1,.48.75,7.87,7.87,0,0,1,.92-.65c-.09-.33-.4-.39-.48-.7-.24,0-.13,0-.48.28l-.44.32Z"/><path class="cls-13" d="M83.21,22.32a8.8,8.8,0,0,1,.48.75,7.87,7.87,0,0,1,.92-.65c-.09-.33-.4-.39-.48-.7-.24,0-.13,0-.48.28l-.44.32Z"/><path class="cls-47" d="M64.59,22.32a8.82,8.82,0,0,1,.48.75,7.87,7.87,0,0,1,.92-.65c-.09-.33-.4-.39-.48-.7-.24,0-.13,0-.48.28l-.44.32Z"/><path class="cls-4" d="M91.39,12.15a5.12,5.12,0,0,1,.75.43,4,4,0,0,1,.59-.86,6.48,6.48,0,0,1-.65-.54A2.6,2.6,0,0,0,91.39,12.15Z"/><path class="cls-42" d="M35.63,12.15a5.12,5.12,0,0,1,.75.43,4,4,0,0,1,.59-.86,6.47,6.47,0,0,1-.65-.54A2.6,2.6,0,0,0,35.63,12.15Z"/><path class="cls-47" d="M54,12.15a5.12,5.12,0,0,1,.75.43,4,4,0,0,1,.59-.86,6.47,6.47,0,0,1-.65-.54A2.6,2.6,0,0,0,54,12.15Z"/><path class="cls-13" d="M72.66,12.15a5.13,5.13,0,0,1,.75.43,4,4,0,0,1,.59-.86,6.47,6.47,0,0,1-.65-.54A2.6,2.6,0,0,0,72.66,12.15Z"/><path class="cls-6" d="M17.22,12.15a5.12,5.12,0,0,1,.75.43,4,4,0,0,1,.59-.86,6.47,6.47,0,0,1-.65-.54A2.6,2.6,0,0,0,17.22,12.15Z"/><path class="cls-48" d="M45.67,17.83c-.23-.14-1.09.48-1.5.71-1.95,1.11-1.56,1.29-3.09.32a11,11,0,0,1-1.31-1.11,5.66,5.66,0,0,0,2,1.68c.81.45.69.3,2.39-.71.51-.3,1-.58,1.53-.9Z"/><polygon class="cls-4" points="97.69 35.78 98.55 35.78 98.55 34.7 97.69 34.7 97.69 35.78"/><polygon class="cls-4" points="97.69 26.74 98.55 26.74 98.55 25.66 97.69 25.66 97.69 26.74"/><polygon class="cls-4" points="97.69 33.52 98.55 33.52 98.55 32.44 97.69 32.44 97.69 33.52"/><polygon class="cls-4" points="97.69 29 98.55 29 98.55 27.92 97.69 27.92 97.69 29"/><polygon class="cls-4" points="97.69 31.26 98.55 31.26 98.55 30.18 97.69 30.18 97.69 31.26"/><polygon class="cls-5" points="78.96 26.74 79.82 26.74 79.82 25.66 78.96 25.66 78.96 26.74"/><polygon class="cls-5" points="78.96 35.78 79.82 35.78 79.82 34.7 78.96 34.7 78.96 35.78"/><polygon class="cls-49" points="60.34 33.52 61.2 33.52 61.2 32.44 60.34 32.44 60.34 33.52"/><polygon class="cls-5" points="78.96 33.52 79.82 33.52 79.82 32.44 78.96 32.44 78.96 33.52"/><polygon class="cls-5" points="78.96 29 79.82 29 79.82 27.92 78.96 27.92 78.96 29"/><polygon class="cls-6" points="23.52 26.74 24.38 26.74 24.38 25.66 23.52 25.66 23.52 26.74"/><polygon class="cls-49" points="60.34 29 61.2 29 61.2 27.92 60.34 27.92 60.34 29"/><polygon class="cls-49" points="60.34 35.78 61.2 35.78 61.2 34.7 60.34 34.7 60.34 35.78"/><polygon class="cls-3" points="41.93 29 42.79 29 42.79 27.92 41.93 27.92 41.93 29"/><polygon class="cls-6" points="23.52 33.52 24.38 33.52 24.38 32.44 23.52 32.44 23.52 33.52"/><polygon class="cls-3" points="41.93 35.78 42.79 35.78 42.79 34.7 41.93 34.7 41.93 35.78"/><polygon class="cls-6" points="23.52 35.78 24.38 35.78 24.38 34.7 23.52 34.7 23.52 35.78"/><polygon class="cls-3" points="41.93 33.52 42.79 33.52 42.79 32.44 41.93 32.44 41.93 33.52"/><polygon class="cls-6" points="23.52 29 24.38 29 24.38 27.92 23.52 27.92 23.52 29"/><polygon class="cls-49" points="60.34 26.74 61.2 26.74 61.2 25.66 60.34 25.66 60.34 26.74"/><polygon class="cls-3" points="41.93 26.74 42.79 26.74 42.79 25.66 41.93 25.66 41.93 26.74"/><polygon class="cls-6" points="23.52 31.26 24.38 31.26 24.38 30.18 23.52 30.18 23.52 31.26"/><polygon class="cls-49" points="60.34 31.26 61.2 31.26 61.2 30.18 60.34 30.18 60.34 31.26"/><polygon class="cls-3" points="41.93 31.26 42.79 31.26 42.79 30.18 41.93 30.18 41.93 31.26"/><polygon class="cls-5" points="78.96 31.26 79.82 31.26 79.82 30.18 78.96 30.18 78.96 31.26"/><path class="cls-48" d="M45.55,18.18a17.75,17.75,0,0,0-1.77,1c-1.07.62-1.17.89-1.8.61a6.22,6.22,0,0,1-2.75-2.41l-.14-.2,0,0a3.44,3.44,0,0,0,.5.91A6.59,6.59,0,0,0,41.91,20c.52.24.54.09,1-.15Z"/><polygon class="cls-50" points="24.57 52.03 24.7 52.03 24.7 51.93 24.7 51.05 24.57 51.05 23.82 51.09 23.82 52.01 24.57 52.03"/><path class="cls-51" d="M94.89,18.09l0,0a20.61,20.61,0,0,0,.94-2.24,16.53,16.53,0,0,1,1-2.25l0-.09-.13-.13c-.11.22-.16.36-.25.58l-.72,1.7a17.09,17.09,0,0,0-.85,2.4Z"/><path class="cls-4" d="M101.25,10a5,5,0,0,1,.7.38c.17-.25.32-.51.48-.75a3.44,3.44,0,0,0-.86-.43c-.07.31-.3.49-.32.81Z"/><path class="cls-47" d="M63.89,10a5,5,0,0,1,.7.38c.17-.25.32-.51.48-.75a3.44,3.44,0,0,0-.86-.43C64.14,9.5,63.91,9.68,63.89,10Z"/><path class="cls-13" d="M82.51,10a5,5,0,0,1,.7.38c.17-.25.32-.51.48-.75a3.44,3.44,0,0,0-.86-.43C82.76,9.5,82.54,9.68,82.51,10Z"/><path class="cls-42" d="M45.48,10a5,5,0,0,1,.7.38c.17-.25.32-.51.48-.75a3.44,3.44,0,0,0-.86-.43C45.73,9.5,45.51,9.68,45.48,10Z"/><path class="cls-6" d="M27.07,10a5,5,0,0,1,.7.38c.17-.25.32-.51.48-.75a3.44,3.44,0,0,0-.86-.43C27.32,9.5,27.1,9.68,27.07,10Z"/><path class="cls-4" d="M100.11,23.13c0,.3.19.52.22.86.34,0,.62-.24.92-.27,0-.13-.29-.81-.38-.81s-.45.19-.75.22Z"/><path class="cls-13" d="M81.38,23.13c0,.3.19.52.22.86.34,0,.62-.24.92-.27,0-.13-.29-.81-.38-.81s-.45.19-.75.22Z"/><path class="cls-6" d="M25.94,23.13c0,.3.19.52.22.86.34,0,.62-.24.92-.27,0-.13-.29-.81-.38-.81s-.45.19-.75.22Z"/><path class="cls-47" d="M62.76,23.13c0,.3.19.52.22.86.34,0,.62-.24.92-.27,0-.13-.29-.81-.38-.81s-.45.19-.75.22Z"/><path class="cls-42" d="M44.35,23.13c0,.3.19.52.22.86.34,0,.62-.24.92-.27,0-.13-.29-.81-.38-.81s-.45.19-.75.22Z"/><path class="cls-42" d="M34.77,14c.33,0,.51.21.86.22a2.63,2.63,0,0,1,.27-.75c-.26-.14-.55-.24-.81-.38a3.48,3.48,0,0,0-.32.92Z"/><path class="cls-13" d="M71.8,14c.33,0,.51.21.86.22a2.63,2.63,0,0,1,.27-.75c-.26-.14-.55-.24-.81-.38A3.48,3.48,0,0,0,71.8,14Z"/><path class="cls-47" d="M53.18,14c.33,0,.51.21.86.22a2.63,2.63,0,0,1,.27-.75c-.26-.14-.55-.24-.81-.38a3.48,3.48,0,0,0-.32.92Z"/><path class="cls-4" d="M90.53,14c.33,0,.51.21.86.22a2.64,2.64,0,0,1,.27-.75c-.26-.14-.55-.24-.81-.38a3.48,3.48,0,0,0-.32.92Z"/><path class="cls-6" d="M16.36,14c.33,0,.51.21.86.22a2.63,2.63,0,0,1,.27-.75c-.26-.14-.55-.24-.81-.38A3.48,3.48,0,0,0,16.36,14Z"/><path class="cls-4" d="M96,24a6.9,6.9,0,0,0,.92.16c0-.3.1-.58.11-.86-.28,0-.54-.14-.81-.16A3.69,3.69,0,0,0,96,24Z"/><path class="cls-6" d="M21.8,24a6.9,6.9,0,0,0,.92.16c0-.3.1-.58.11-.86-.28,0-.54-.14-.81-.16A3.69,3.69,0,0,0,21.8,24Z"/><path class="cls-13" d="M77.24,24a6.89,6.89,0,0,0,.92.16c0-.3.1-.58.11-.86-.28,0-.54-.14-.81-.16A3.69,3.69,0,0,0,77.24,24Z"/><path class="cls-42" d="M40.2,24a6.9,6.9,0,0,0,.92.16c0-.3.1-.58.11-.86-.28,0-.54-.14-.81-.16A3.69,3.69,0,0,0,40.2,24Z"/><path class="cls-47" d="M58.61,24a6.9,6.9,0,0,0,.92.16c0-.3.1-.58.11-.86-.28,0-.54-.14-.81-.16A3.69,3.69,0,0,0,58.61,24Z"/><path class="cls-4" d="M90.26,17.53a3.21,3.21,0,0,0,.16.92,6.64,6.64,0,0,0,.86-.22,4.23,4.23,0,0,1-.16-.81C90.8,17.43,90.55,17.51,90.26,17.53Z"/><path class="cls-6" d="M16.09,17.53a3.21,3.21,0,0,0,.16.92,6.64,6.64,0,0,0,.86-.22,4.23,4.23,0,0,1-.16-.81C16.62,17.43,16.38,17.51,16.09,17.53Z"/><path class="cls-13" d="M71.53,17.53a3.21,3.21,0,0,0,.16.92,6.64,6.64,0,0,0,.86-.22,4.23,4.23,0,0,1-.16-.81C72.07,17.43,71.82,17.51,71.53,17.53Z"/><path class="cls-42" d="M34.5,17.53a3.21,3.21,0,0,0,.16.92,6.64,6.64,0,0,0,.86-.22,4.23,4.23,0,0,1-.16-.81C35,17.43,34.78,17.51,34.5,17.53Z"/><path class="cls-47" d="M52.91,17.53a3.21,3.21,0,0,0,.16.92,6.64,6.64,0,0,0,.86-.22,4.23,4.23,0,0,1-.16-.81C53.44,17.43,53.19,17.51,52.91,17.53Z"/><path class="cls-13" d="M86.44,16.89v.48c.3,0,.58.1.86.11,0-.32.05-.53.05-.92a8.54,8.54,0,0,0-.86-.05A3,3,0,0,0,86.44,16.89Z"/><path class="cls-47" d="M67.82,16.89v.48c.3,0,.58.1.86.11,0-.32.05-.53.05-.92a8.54,8.54,0,0,0-.86-.05,3,3,0,0,0-.05.38Z"/><path class="cls-42" d="M49.41,16.89v.48c.3,0,.58.1.86.11,0-.32.05-.53.05-.92a8.54,8.54,0,0,0-.86-.05,3,3,0,0,0-.05.38Z"/><path class="cls-6" d="M31,16.89v.48c.3,0,.58.1.86.11,0-.32.05-.53.05-.92a8.54,8.54,0,0,0-.86-.05,3,3,0,0,0-.05.38Z"/><path class="cls-13" d="M84.77,21a2.61,2.61,0,0,0,.7.59c.07-.28.46-.46.48-.81a3.62,3.62,0,0,1-.7-.43c-.15.22-.34.43-.48.65Z"/><path class="cls-42" d="M47.74,21a2.6,2.6,0,0,0,.7.59c.07-.28.46-.46.48-.81a3.62,3.62,0,0,1-.7-.43c-.15.22-.34.43-.48.65Z"/><path class="cls-6" d="M29.33,21a2.6,2.6,0,0,0,.7.59c.07-.28.46-.46.48-.81a3.62,3.62,0,0,1-.7-.43c-.15.22-.34.43-.48.65Z"/><path class="cls-47" d="M66.15,21a2.6,2.6,0,0,0,.7.59c.07-.28.46-.46.48-.81a3.62,3.62,0,0,1-.7-.43c-.15.22-.34.43-.48.65Z"/><path class="cls-4" d="M103.51,21a2.6,2.6,0,0,0,.7.59c.07-.28.46-.46.48-.81a3.62,3.62,0,0,1-.7-.43c-.15.22-.34.43-.48.65Z"/><path class="cls-13" d="M85.47,12.64a1.15,1.15,0,0,0,.17.37,4.3,4.3,0,0,0,.21.38,3.74,3.74,0,0,1,.75-.32,3,3,0,0,0-.38-.86,4.55,4.55,0,0,0-.75.43Z"/><path class="cls-42" d="M48.44,12.64a1.15,1.15,0,0,0,.17.37,4.31,4.31,0,0,0,.21.38,3.74,3.74,0,0,1,.75-.32,3,3,0,0,0-.38-.86,4.54,4.54,0,0,0-.75.43Z"/><path class="cls-47" d="M55.71,10.21c.05.19.12.18.25.35a1,1,0,0,0,.29.3c.29-.15.25-.22.65-.43-.08-.29-.35-.46-.43-.75a2.16,2.16,0,0,0-.75.54Z"/><path class="cls-42" d="M37.3,10.21a2,2,0,0,0,.54.65c.29-.15.25-.22.65-.43-.08-.29-.35-.46-.43-.75a2.16,2.16,0,0,0-.75.54Z"/><path class="cls-6" d="M18.89,10.21a2,2,0,0,0,.54.65c.29-.15.25-.22.65-.43-.08-.29-.35-.46-.43-.75A2.16,2.16,0,0,0,18.89,10.21Z"/><path class="cls-4" d="M93.06,10.21a2,2,0,0,0,.54.65c.29-.15.25-.22.65-.43-.08-.29-.35-.46-.43-.75a2.16,2.16,0,0,0-.75.54Z"/><path class="cls-13" d="M74.33,10.21a2,2,0,0,0,.54.65,1.22,1.22,0,0,0,.31-.22,1.91,1.91,0,0,1,.33-.21c-.08-.29-.35-.46-.43-.75a2.16,2.16,0,0,0-.75.54Z"/><path class="cls-6" d="M18,21.62l.63.66a6.27,6.27,0,0,0,.61-.66,1.73,1.73,0,0,1-.28-.25c-.13-.13-.21-.16-.26-.34a1,1,0,0,0-.36.28A4.18,4.18,0,0,0,18,21.62Z"/><path class="cls-4" d="M97.15,8.44c0,.28.09.6.11.86.37,0,.55-.05.86-.05l-.05-.86-.92.05Z"/><path class="cls-13" d="M78.42,8.44c0,.28.09.6.11.86.37,0,.55-.05.86-.05l-.05-.86-.92.05Z"/><path class="cls-47" d="M59.8,8.44c0,.28.09.6.11.86.37,0,.55-.05.86-.05l-.05-.86-.92.05Z"/><path class="cls-42" d="M41.39,8.44c0,.28.09.6.11.86.37,0,.55-.05.86-.05l-.05-.86-.92.05Z"/><path class="cls-6" d="M23,8.44c0,.28.09.6.11.86.37,0,.55-.05.86-.05l-.05-.86L23,8.44Z"/><path class="cls-6" d="M30,12.64l.38.75a3.75,3.75,0,0,1,.75-.32,3,3,0,0,0-.38-.86,4.54,4.54,0,0,0-.75.43Z"/><path class="cls-4" d="M104.21,12.64l.38.75a3.74,3.74,0,0,1,.75-.32,3,3,0,0,0-.38-.86,4.55,4.55,0,0,0-.75.43Z"/><path class="cls-47" d="M66.85,12.64l.38.75a3.74,3.74,0,0,1,.75-.32,3,3,0,0,0-.38-.86,4.54,4.54,0,0,0-.75.43Z"/><path class="cls-42" d="M36.38,21.62l.63.66c.25-.17.33-.42.61-.61-.15-.23-.46-.36-.54-.65a1,1,0,0,0-.36.28,4.18,4.18,0,0,0-.34.31Z"/><path class="cls-13" d="M73.42,21.62l.63.66a6.27,6.27,0,0,0,.61-.66,1.73,1.73,0,0,1-.28-.25c-.13-.13-.21-.16-.26-.34Z"/><path class="cls-47" d="M54.79,21.62l.63.66a6.27,6.27,0,0,0,.61-.66,1.63,1.63,0,0,1-.54-.59Z"/><path class="cls-4" d="M92.15,21.62l.63.66a6.27,6.27,0,0,0,.61-.66,1.63,1.63,0,0,1-.54-.59Z"/><path class="cls-4" d="M105.17,16.89v.48c.28,0,.55.09.81.11v-.86c-.06-.13-.24-.11-.75-.11A3,3,0,0,0,105.17,16.89Z"/><path class="cls-18" d="M23.41,50.68l0,.36h1.17v-.26c-.07-.51-.44-.09-.49-.68l-.19,0c0,.5-.28.19-.46.56Z"/><path class="cls-52" d="M97.6,12.72c0-.51.06-.57.58-.57.29,0,.75,0,.92.24.31-.14.63.12.77.32.11-.1-.22-.2.27-.05l.18.1c.42.24.91.46.87,1,.21-.5-.2-.71-.49-.91a5.09,5.09,0,0,0-1.08-.54c-.59-.23-2.53-.78-2,.43Z"/><path class="cls-53" d="M39.39,15.35l.07.14.15.28.1.16.21.37.06,0a1.62,1.62,0,0,1,.23.32l.1.11a2,2,0,0,0,.16.16c.08.09,0,.07.12.15s.19.09.28.31l.13.09c.17.08.19.16.34.26s.25.14.36.22l.14.12.36.17.12.08.28.11c0-.17.06-.05-.12-.18l-.13-.08L42,18a.43.43,0,0,1-.12-.11l-.34-.19-.08-.08a.59.59,0,0,1-.35-.24c-.09,0-.08,0-.06-.06l-.3-.28-.12-.11-.14-.13c-.11-.12,0,0-.1-.13l-.1-.11c-.06-.09-.15-.18-.22-.26L40,16.18l-.2-.33-.12-.12-.09-.27-.08-.15c-.14-.19,0-.27-.28-.37l.13.41Z"/><path class="cls-54" d="M24,16.86c.14.3.2.1.7.45l-.74.26v.09l.78-.25-.3.77h.09l.31-.72.33.71h0l-.26-.74.75.31c-.1-.23-.52-.22-.66-.44l.72-.26V17a7.27,7.27,0,0,0-.8.22,4.4,4.4,0,0,0,.29-.76c-.18.12-.19.32-.31.55l-.1.17-.27-.78-.07,0,.25.8L24,16.86Z"/><path class="cls-18" d="M97.77,52.87c.57.05.57-.22.74-.66a6.45,6.45,0,0,0,.38-1.09c-.43.16-.47.41-.64.84a3.09,3.09,0,0,1-.48.92Z"/><path class="cls-55" d="M99.58,13.18c-.35,0-.54,0-.66-.3-.23,0-.26-.05-.44.06-.1.45,1,.84,1.4.65C99.93,13.32,99.79,13.23,99.58,13.18Z"/><path class="cls-56" d="M23,55.52c0,.24.06-.07,0,.06-.06,0-.1,0,0-.17A.16.16,0,0,1,23,55.52Zm.28.4c.09-.17,0-.24-.13-.58,0,0-.14-.25-.14-.25-.06-.23,0,.23,0-.1,0-.14.05,0,0-.09-.21.08-.14.15-.23.4a2.26,2.26,0,0,1-.2.45h-.39c0-.28.1-.59-.14-.65a1.85,1.85,0,0,0,0,.8c.12,0,.65.06.71,0C23,55.53,23,55.86,23.25,55.92Z"/><path class="cls-18" d="M60.33,52.36l-.38,0,.05.28a1.9,1.9,0,0,0,1,.14c.42,0,.63,0,.68-.42-.23,0-.45,0-.68.06s-.49,0-.71,0Z"/><path class="cls-18" d="M23.58,55.32s-.07-.17.32.07c.22-.18,0-.14.37-.11,0,.62-.08.54.12.64.12-.16.08-.37.08-.6.22-.14.14.08.24-.16a.77.77,0,0,0-.43-.06.4.4,0,0,0-.19,0l0,0,0,0s0,0,0,0,0,0,0,0,.06,0-.12-.12-.39,0-.44.17.26.2.42.41c-.26.16-.17-.09-.42-.08,0,.39.65.54.61-.09C23.85,55.43,23.73,55.42,23.58,55.32Z"/><path class="cls-57" d="M62.23,14.37a1.58,1.58,0,0,0-.6.38c.35.32.21.27.43.66l.54-.3a.8.8,0,0,0-.36-.74Z"/><path class="cls-18" d="M97,55.84a1.1,1.1,0,0,0,.63,0c-.07-.17-.21-.11-.44-.11,0-.25,0-.11.4-.19-.08-.23.07-.08-.21-.15s-.11.12-.18-.09.63-.17.68.05,0,.25,0,.33c0,.26,0,.13.1.23.14-.09.08,0,.1-.23,0-.54-.12-.27.11-.43s.08,0,.14-.11a5.33,5.33,0,0,0-1.31,0v.77Z"/><path class="cls-18" d="M96.13,55.87c.18-.08.06.08.13-.17,0,0,0-.19,0-.24a.42.42,0,0,0,.17.41c.18-.1.15-.15.19-.37.08.43,0,.27.13.37a1.41,1.41,0,0,0,.06-.82c-.19,0-.16,0-.26.06l-.15.29c-.06-.3,0-.37-.33-.34a1.27,1.27,0,0,0,0,.81Z"/><path class="cls-50" d="M23.64,50.08l.23,0,.19,0h.23c.22,0,0,0,.11-.06-.15-.28,0,0,0-.59h-.86c0,.57.11.31,0,.58.06.09,0,0,.11,0Z"/><path class="cls-58" d="M23.36,51v1l.14,0v-.94c.15.1.06.72.05.93l1,.06v.81c.15-.1.07-.67,0-.86h-.76v-.93l.75,0c0-.2,0-.12,0-.27V51H23.37l0-.36s0,0-.07.17,0,.09,0,.2Z"/><path class="cls-59" d="M60,52.31l.38,0,0-1.24-.33,0,0-.31c-.18.22,0,1.18,0,1.54Z"/><path class="cls-18" d="M41.39,51.72c.14.16,0,.22.46.56.62.5.6.55,1.83-.32-.27-.16-.37,0-.61.15-.82.49-.6.44-1.68-.38Z"/><path class="cls-60" d="M39.71,15.73l.12.12,2.74-1.65s0-.06,0,0,0,0,0,0a.28.28,0,0,0-.08-.11c0,.26,0,.06-.11.2l-2.65,1.53Z"/><path class="cls-61" d="M99.46,13.08c-.45.05-.5-.52.08-.24Zm-.36-.55a.35.35,0,0,1,.42-.06.33.33,0,0,1,.24.22s0,.05-.18,0l-.48-.16Zm-.17.35c.12.28.31.35.66.3.16-.1.38-.2.28-.47s-.46-.46-.77-.32-.18.14-.17.48Z"/><path class="cls-18" d="M60.28,50.1a1.76,1.76,0,0,1,1.12,0,2.27,2.27,0,0,1-.91.07l-.14,0Zm-.27,0c.07.3.29.27.8.26l.49,0c.28,0,.28,0,.32-.24A2,2,0,0,0,60,50.08Z"/><path class="cls-18" d="M78.41,55.54c-.34.22-.43-.2-.29-.4s.54.3.43-.05a.19.19,0,0,0-.11-.11c-.72-.37-1,1.14.14.71v-.36c-.2,0-.23-.05-.37.05C78.28,55.49,78.37,55.49,78.41,55.54Z"/><path class="cls-54" d="M23.4,16.08l.23.77-.43-.23-.3-.11c.1.29.38.14.69.45l-.71.27c0,.12,0,0,.07.06l.71-.25c-.07.31-.24.47-.33.81,0,0,0,0,0,0s0,0,0,0c.13-.17,0-.15.19-.27l.13-.36a1.68,1.68,0,0,1,.31-.7l.13-.36-.07,0-.3.75L23.46,16Z"/><path class="cls-18" d="M81.69,55.59c-.13-.23-.12-.25,0-.48C82.12,55.12,82.13,55.59,81.69,55.59ZM81.48,55c-.25.84.44.88.65.6S82.09,54.75,81.48,55Z"/><path class="cls-18" d="M61.4,55.15c-.08.17,0,.11-.27.12v-.18l.27.06Zm.07.29S62,54.79,61,55v.23c0,.5,0,.45.09.55.21-.15,0-.16.16-.33.21.15.13.33.41.3,0-.19,0-.19-.14-.29Z"/><path class="cls-62" d="M22.95,17.29c.08.28.29.31.3.64,0,0-.06,0,.09.06l.12,0,.27,0c-.09-.16,0,0-.07-.2l-.06-.36c-.15.11-.06.1-.19.27,0,0,0,0,0,0s0,0,0,0c.09-.34.26-.5.33-.81l-.71.25Z"/><path class="cls-62" d="M22.71,16.49c.11.08,0-.08.11.14a.67.67,0,0,1,0,.21c0,.18,0,.25,0,.4L23.6,17c-.31-.3-.58-.15-.69-.45l.3.11-.14-.38,0-.16Z"/><path class="cls-18" d="M76.51,55.18c.3-.29.34.25.24.36S76.23,55.45,76.51,55.18Zm.43-.16c-.27-.11-.67-.13-.72.25s.22.52.6.47.18-.53.12-.72Z"/><path class="cls-18" d="M62.24,55.14c.17.66-.46.63-.31,0ZM61.88,55c-.28.32-.28.47,0,.81h.42c.23-.29.3-.5,0-.8h-.4Z"/><path class="cls-20" d="M26.14,55.75c-.12-.23-.12-.26,0-.48C26.57,55.29,26.57,55.75,26.14,55.75Zm-.1.15c1,.13.75-1.1-.12-.72C25.8,55.59,25.85,55.71,26,55.9Z"/><path class="cls-56" d="M79.06,55.21c.07.24.08.16,0,.2S79,55.31,79.06,55.21Zm0-.47a.28.28,0,0,0-.19.07c-.05.38.05,0,0,.21s-.22.36-.24.74c.38-.06.05-.21.39-.18s-.08.1.35.19a3,3,0,0,0-.24-.75c0-.24.07-.11-.11-.27Z"/><path class="cls-20" d="M77.56,55.21c-.26.16-.26,0-.26,0s-.09-.14.15-.11S77.53,55.15,77.56,55.21Zm.08.2c.07-.1.19-.15.12-.33s-.4-.14-.63-.12c0,.22-.07.64.06.81.13-.07.07,0,.13-.26l0-.07c.41.15,0,.22.38.33,0,0,.11.06,0-.19A.85.85,0,0,0,77.64,55.41Z"/><path class="cls-56" d="M79.55,55.75c.22,0,.14-.12.14-.4l.12.13c.13.17.09.29.36.25a1.93,1.93,0,0,0,0-.78c-.22,0-.14.13-.14.4l0,0-.07-.07,0,0c-.14-.18-.09-.25-.34-.26l0,.8Z"/><path class="cls-18" d="M41.34,52.11a2.22,2.22,0,0,0,1.06,1,4.18,4.18,0,0,0,1.25-.71c-.72-.13-.73,1.22-2.08-.07l-.22-.19Z"/><path class="cls-60" d="M39.54,15.31l.08.15a7.67,7.67,0,0,1,1.33-.85l.71-.42a5.52,5.52,0,0,1,.7-.39l-.06-.12-2.75,1.64Z"/><path class="cls-21" d="M22.6,11.31l-1.13.39c-.14.06-.12-.06-.07.14s.05.12.19.15a3.86,3.86,0,0,1,1.12-.43l.12-.09s0-.06,0,0l-.06-.1C22.63,11.21,22.75,11.21,22.6,11.31Z"/><path class="cls-18" d="M60.32,55.11c.45,0,.45.46,0,.48Zm-.17.61c1,.3.86-1.09,0-.72Z"/><path class="cls-39" d="M39.88,17.08l.21.22.2-.18s-.06-.16.21,0c0,0,.09,0,0,.16s0,0-.16.06-.06,0-.12.05l.27.26a1.42,1.42,0,0,0,.41-.24c-.09-.22-.15-.18-.28-.31s0-.06-.12-.15a2,2,0,0,1-.16-.16.52.52,0,0,0-.44.3Z"/><path class="cls-63" d="M78.91,15.17l.16,0c-.08-.05,0,0-.11-.11a.75.75,0,0,1-.07-.14,2.83,2.83,0,0,1-.13-.3A1.64,1.64,0,0,0,77.67,14c-.25,0-.27,0-.32.22.28.06,1.35,0,1.56.92Z"/><path class="cls-64" d="M58.46,16.86a4.72,4.72,0,0,1,.16-2.14l-.25,0a1.73,1.73,0,0,0-.16,1.08c0,.19.09.35.11.53l.11.45s0,0,0,0Z"/><path class="cls-21" d="M96.4,20.23a1.35,1.35,0,0,0,.7.27,1.82,1.82,0,0,0,.53-.48,1.07,1.07,0,0,1-.61-.07A2.57,2.57,0,0,1,96.4,20.23Z"/><path class="cls-60" d="M42.36,18.18l.13.08c.09-.23,2.29-1.32,2.62-1.65L45,16.5c-.08.19-.35.29-.63.46l-.67.4A11.85,11.85,0,0,0,42.36,18.18Z"/><path class="cls-60" d="M41.46,17.62l.08.08c.44-.28.92-.54,1.36-.81a12.37,12.37,0,0,0,1.34-.82c-.06-.25,0,0-.11-.13-.07.2-.3.27-.64.47l-.67.41c-.46.27-.9.56-1.36.8Z"/><path class="cls-48" d="M40.6,17.74c.12.11.13.08.24.22.18,0,.06,0,.19,0l0-.13s0-.07.12-.07c.29,0,0,0,.09.07s.09-.19,0,.16c-.07,0-.05,0-.15,0s.09.21.15.24a1,1,0,0,0,.43-.27c-.11-.08-.25-.13-.36-.22s-.17-.18-.34-.26A.72.72,0,0,0,40.6,17.74Z"/><path class="cls-60" d="M41.88,17.89A.43.43,0,0,0,42,18c.1-.17.43-.31.62-.43l.68-.4c.47-.28.91-.56,1.38-.82l-.13-.12c-.08.17-.44.32-.62.43l-.68.4-1.37.81Z"/><path class="cls-20" d="M98.7,55.52c-.18,0-.16,0-.06-.2Zm-.41.34c.37,0,0-.15.32-.17s0,.11.4.19a1.58,1.58,0,0,0-.34-.83c-.2.06-.21.18-.28.37s-.15.29-.1.44Z"/><path class="cls-20" d="M42.86,55.32c.16-.11.09,0,.25-.05s.09.06.17-.11a1,1,0,0,0-.59,0v.78c.07,0,.54,0,.57,0s0,0,0,0c-.16-.26-.21,0-.44-.16.05-.18-.06-.07.19-.12s.1.08.2-.1c-.24-.19-.3.07-.4-.16Z"/><path class="cls-18" d="M81.32,55.43c-.31,0,0,0-.22.11-.35.22-.33-.2-.21-.42.47,0,.06.13.42.14,0-.48-.7-.45-.7.12s.69.58.71.05Z"/><path class="cls-60" d="M40,16.18l.06.12c.4-.27.92-.56,1.36-.81a11.43,11.43,0,0,1,1.41-.81c0-.09,0,0-.07-.13l-1.36.82-.68.4a5.37,5.37,0,0,1-.73.41Z"/><path class="cls-20" d="M25.8,55.57c-.39.1,0,.21-.45.17a.6.6,0,0,1,0-.44c.39-.09.12.07.47.13,0-.33-.18-.35-.51-.31-.64.72.47,1.2.52.45Z"/><path class="cls-18" d="M41.49,55.38c.06.08.11.07.06.2C41.42,55.54,41.39,55.66,41.49,55.38Zm-.32.53c.33,0,0-.22.37-.17s-.08.13.33.18c0-.16-.15-.72-.38-.82A1.11,1.11,0,0,0,41.17,55.91Z"/><path class="cls-60" d="M40.64,16.93l.12.11a4.76,4.76,0,0,1,.65-.4l.67-.4a11.63,11.63,0,0,1,1.42-.8c-.07-.09.09,0-.14-.1-.16.15-2.53,1.54-2.71,1.6Z"/><path class="cls-60" d="M40.31,16.57l.1.11,2.71-1.62c0-.09,0-.08,0-.07-.47.24-.93.54-1.37.8a10.56,10.56,0,0,1-1.38.78Z"/><path class="cls-52" d="M100.84,15.05l.29-.11.11-1.09a1.17,1.17,0,0,1-.43.2,1.71,1.71,0,0,1,0,1Z"/><path class="cls-18" d="M21.49,55.43c-.12,0,0,0-.07-.11s-.07-.09.14,0,0,0,.09.09.06.12-.16.06Zm-.18.49c.17-.08.11,0,.11-.3a.73.73,0,0,0,.41-.11c.09-.49-.15-.42-.57-.4a2.17,2.17,0,0,0,0,.42s0,.2,0,.22C21.27,55.94,21.24,55.83,21.31,55.92Z"/><path class="cls-60" d="M41.06,17.33c0,.08,0,.06.06.06.43-.2.92-.54,1.36-.8a13.59,13.59,0,0,1,1.36-.8l-.08-.09Z"/><path class="cls-20" d="M77.08,17c.18-.2,0-.35.17-.63s.24-.24.29-.57a.77.77,0,0,0-.46,1.2Z"/><path class="cls-18" d="M59.35,55.42c-.12-.23,0-.44-.31-.47-.08.13.15.64.17.68s0,.05.15.14c.17-.12.15-.17.23-.38.22-.57.08-.4,0-.45C59.42,55.06,59.51,55.23,59.35,55.42Z"/><path class="cls-41" d="M23.25,17.92c0-.33-.22-.36-.3-.64-.08,0-.06.07-.07-.06s0-.22,0-.4a.67.67,0,0,0,0-.21c-.07-.21,0-.06-.11-.14a1.13,1.13,0,0,0,.54,1.43Z"/><path class="cls-20" d="M40.78,55.26c.14,0,.11,0,.19.06s0,.09,0,.1.06.06-.17.06l0-.21Zm-.05.65,0-.29.27,0,.15-.11c0-.45-.19-.4-.59-.36v.79h.14Z"/><path class="cls-20" d="M42.18,55.26c.14,0,.11,0,.19.06s0,.09,0,.1.06.06-.17.06c0-.11,0,0,0-.14Zm-.05.65,0-.29.27,0,.15-.11c0-.45-.19-.4-.59-.36v.79h.14Z"/><path class="cls-22" d="M25.73,17l0-.07a1,1,0,0,0-.46-.46,4.39,4.39,0,0,1-.29.76A7.26,7.26,0,0,1,25.73,17Z"/><path class="cls-22" d="M25.67,17.74a.86.86,0,0,0,.06-.7L25,17.3C25.14,17.52,25.57,17.51,25.67,17.74Z"/><path class="cls-22" d="M24.55,16.39l.27.78.1-.17c.12-.23.13-.44.31-.55A1,1,0,0,0,24.55,16.39Z"/><path class="cls-22" d="M24,16.86l.75.35-.25-.8A1.44,1.44,0,0,0,24,16.86Z"/><path class="cls-22" d="M23.94,17.66c.06.07.16.21.23.29s.14.12.24.23l.3-.77Z"/><path class="cls-22" d="M23.46,16l.34.78.3-.75A1.08,1.08,0,0,0,23.46,16Z"/><path class="cls-22" d="M23.94,17.58l.74-.26c-.5-.35-.56-.15-.7-.45a1.22,1.22,0,0,0,0,.71Z"/><path class="cls-22" d="M25.18,18.17c.32-.17.3-.14.48-.43l-.75-.31Z"/><path class="cls-6" d="M23.15,51.12l.21-.07c0-.11,0-.06,0-.2s0-.13.07-.17c.18-.37.41-.07.46-.56l-.23,0v.17c-.47.11-.47.39-.49.87Z"/><path class="cls-22" d="M24.5,18.19a1,1,0,0,0,.63,0l-.33-.71-.31.72Z"/><path class="cls-65" d="M98.39,50.53c-.27,0-.55-.11-.54-.42H98l.18,0s-.05-.11-.29-.07c-.63.12.51,1,1.18.67a.44.44,0,0,0-.43-.45c.15.22.25.15.33.28s.14.12-.12.16a.64.64,0,0,1-.48-.11Z"/><path class="cls-52" d="M96.72,13.41l.13.13a1.68,1.68,0,0,1,.61-.88v-.29a1.42,1.42,0,0,0-.42.47,2.19,2.19,0,0,0-.31.58Z"/><path class="cls-18" d="M99.1,55.85a1,1,0,0,0,.57,0c-.07-.17-.14-.11-.39-.11,0-.28.09-.59-.14-.65A1.85,1.85,0,0,0,99.1,55.85Z"/><path class="cls-22" d="M23.07,16.24l.14.38.43.23-.23-.77A2.86,2.86,0,0,0,23.07,16.24Z"/><path class="cls-18" d="M43.41,55.88a.82.82,0,0,0,.29,0c.19,0,.15,0,.27-.06-.06-.12.13-.11-.39-.11,0-.13,0-.26,0-.38s0-.18-.1-.27C43.33,55.21,43.39,55.67,43.41,55.88Z"/><path class="cls-39" d="M39.31,16.22a.52.52,0,0,0,.08.19c.15.19,0,.05.2.12l.05-.16,0,0s0,0,0,0,0,0,.05,0h.16l-.21-.37a.6.6,0,0,0-.25.11c-.1.06-.2.06-.16.18Z"/><polygon class="cls-50" points="23.15 51.98 23.36 52.05 23.36 51.05 23.15 51.12 23.15 51.98"/><path class="cls-39" d="M39.72,16.88a1.17,1.17,0,0,0,.5-.21,1.62,1.62,0,0,0-.23-.32l-.08.25-.33,0C39.57,16.76,39.61,16.7,39.72,16.88Z"/><path class="cls-54" d="M60,54.94c-.23.05-.15.16-.15.43s-.07.33.15.38A1.12,1.12,0,0,0,60,54.94Z"/><path class="cls-18" d="M24.86,55.09a.76.76,0,0,0,0,.84A.76.76,0,0,0,24.86,55.09Z"/><path class="cls-56" d="M80.47,54.95c-.22,0-.15.09-.15.37s-.06.33.1.45c.21-.15.09-.74.05-.82Z"/><path class="cls-2" d="M61.93,55.12c-.15.65.48.68.31,0Z"/><path class="cls-5" d="M81.69,55.59c.43,0,.43-.47,0-.48C81.57,55.34,81.57,55.36,81.69,55.59Z"/><path class="cls-5" d="M76.51,55.18c-.28.27.09.52.24.36S76.81,54.9,76.51,55.18Z"/><path class="cls-6" d="M26.14,55.75c.43,0,.43-.47,0-.48C26,55.49,26,55.52,26.14,55.75Z"/><path class="cls-43" d="M60.28,50.1l.07,0,.14,0a2.27,2.27,0,0,0,.91-.07A1.76,1.76,0,0,0,60.28,50.1Z"/><path class="cls-22" d="M21.42,11.67l0,0,1.13-.39v-.1a3.55,3.55,0,0,0-1.18.46Z"/><path class="cls-2" d="M60.32,55.59c.45,0,.45-.45,0-.48Z"/><path class="cls-66" d="M78.42,51.28c.11,0,0,0,.12-.09s.26-.33.25-.48A.4.4,0,0,0,78.42,51.28Z"/><path class="cls-22" d="M23.37,18.5c0,.33-.08.49.28.5C23.7,18.72,23.61,18.55,23.37,18.5Z"/><path class="cls-67" d="M41.53,51.08a3.49,3.49,0,0,0,.86-.53c-.14-.09-.38.15-.66.31S41.59,50.91,41.53,51.08Z"/><path class="cls-32" d="M99.46,13.08l.08-.24C99,12.57,99,13.13,99.46,13.08Z"/><path class="cls-67" d="M41.74,51.32c.12.09-.06.12.41-.14s.33-.16.38-.33A3.12,3.12,0,0,0,41.74,51.32Z"/><path class="cls-32" d="M99.09,12.53l.48.16c.14,0,.14,0,.18,0a.33.33,0,0,0-.24-.22.35.35,0,0,0-.42.06Z"/><path class="cls-67" d="M42.26,51.92a1.83,1.83,0,0,0,.82-.51A1.75,1.75,0,0,0,42.26,51.92Z"/><path class="cls-67" d="M42,51.66c.09,0,.73-.29.72-.51l-.38.21C42,51.59,42,51.5,42,51.66Z"/><path class="cls-28" d="M59.41,19.82l-.22-.63-.14,0A.85.85,0,0,0,59.41,19.82Z"/><path class="cls-68" d="M23.6,17.5l.06.36h.19a1.47,1.47,0,0,1-.12-.72l-.13.36Z"/><path class="cls-56" d="M98.39,50.53l.21,0c0-.1,0-.17-.5-.25.06.21-.07.08.23.24l.06,0Z"/><path class="cls-69" d="M23.51,52h.07c0-.21.09-.83-.05-.93Z"/><path class="cls-60" d="M39.72,16.88l.07.1.1.09a.52.52,0,0,1,.44-.3l-.1-.11a1.17,1.17,0,0,1-.5.21Z"/><path class="cls-60" d="M41.27,18.23s0,0,0,0a.06.06,0,0,0,0,0l.1.08c.09-.16,0,0,.09-.12l.1-.07a.39.39,0,0,1,.24-.1L41.71,18A1,1,0,0,1,41.27,18.23Z"/><path class="cls-60" d="M39.19,16.05c0,.17,0,.07.11.17,0-.12.06-.12.16-.18a.6.6,0,0,1,.25-.11l-.1-.16A.66.66,0,0,1,39.19,16.05Z"/><path class="cls-60" d="M40.46,17.63c.08.11-.09,0,.14.11a.72.72,0,0,1,.41-.26l-.13-.09a1.42,1.42,0,0,1-.41.24Z"/><path class="cls-68" d="M24,16.45a.8.8,0,0,0,.33-.21c-.11-.14,0-.08-.2-.15Z"/><path class="cls-70" d="M39.29,15.7c-.14-.05-.08,0-.15-.13l.1,0C39.29,15.61,39.29,15.51,39.29,15.7Zm0,0,.05,0v-.16l-.14,0c-.08,0-.06-.05-.13.16.05.05-.06,0,.1.09S39.23,15.74,39.29,15.7Z"/><path class="cls-66" d="M77.3,55.21s0,.16.26,0c0-.07.07-.09-.11-.11S77.33,55.17,77.3,55.21Z"/><path class="cls-2" d="M61.13,55.27c.24,0,.19.05.27-.12l-.27-.06v.18Z"/><path class="cls-30" d="M21.42,55.32c0,.12-.06.08.07.11s.15-.05.16-.06.08,0-.09-.09-.12,0-.14,0Z"/><path class="cls-71" d="M41.92,18.37h.14v.14c.11-.08.07.12.12-.18h.13l-.12-.08s0,0,0,0,0,0-.08,0c-.53.17,0-.23-.16.1Z"/><path class="cls-70" d="M40.3,17.1l.15,0c-.09.17,0,.07-.12.13l0,.06c.12,0,.06,0,.16-.06s0-.15,0-.16c-.26-.14-.18,0-.21,0h0Z"/><path class="cls-72" d="M40.93,55.41s.14,0,0-.1-.05,0-.19-.06v.18l.15,0Z"/><path class="cls-72" d="M42.33,55.41s.14,0,0-.1-.05,0-.19-.06v.18Z"/><path class="cls-73" d="M39.19,15.49l.14,0v.16s0-.05,0,0,0,0,0,0l.07-.11-.07-.14C39.31,15.53,39.36,15.4,39.19,15.49Z"/><path class="cls-60" d="M39.67,16.33l0,0c0,.08,0,.11.09.13.3.06.05,0,.15,0l-.21-.12Z"/><path class="cls-65" d="M98.66,50c-.08,0,0,0-.12-.12h-.25A.45.45,0,0,0,98.66,50Z"/><path class="cls-54" d="M41.25,17.79H41c.06.13,0,.07.07.16C41.26,17.86,41.17,18,41.25,17.79Z"/><path class="cls-70" d="M41,17.92c.15,0,0,0,.09.07s.07,0,.15,0c.07-.34,0-.09,0-.16-.08.16,0,.06-.13.17-.06-.1,0,0-.07-.16l0,.13Z"/><path class="cls-74" d="M41.55,55.58c.06-.13,0-.12-.06-.2C41.39,55.66,41.42,55.54,41.55,55.58Z"/><path class="cls-39" d="M42.07,18.51v-.14h-.14C41.94,18.51,41.95,18.47,42.07,18.51Z"/><path class="cls-75" d="M79,55.42c.13,0,.12,0,0-.2C79,55.31,79,55.31,79,55.42Z"/><path class="cls-54" d="M39.29,15.7c0-.19,0-.09-.05-.16l-.1,0C39.21,15.71,39.15,15.65,39.29,15.7Z"/><path class="cls-60" d="M42.12,55.9c.09-.13.06,0,.06-.25l.25-.05-.27,0,0,.29Z"/><path class="cls-60" d="M40.72,55.9c.09-.13.06,0,.06-.25L41,55.6l-.27,0Z"/><path class="cls-45" d="M98.7,55.52l-.06-.2C98.53,55.54,98.51,55.51,98.7,55.52Z"/><path class="cls-56" d="M40.33,17.26c.13-.05,0,0,.12-.13l-.15,0Z"/><path class="cls-76" d="M41,17.8h.2c-.08-.09.21-.07-.09-.07C41,17.73,41.08,17.76,41,17.8Z"/><path class="cls-77" d="M42.07,18.51c-.12,0-.13,0-.15-.14-.06.07,0,.08,0,.16S42,18.55,42.07,18.51Z"/><path class="cls-73" d="M42.33,55.41l-.15,0v-.18l0,.07c0,.1,0,0,0,.14C42.39,55.47,42.26,55.47,42.33,55.41Z"/><path class="cls-65" d="M98.32,50.1s0,0,0,0l.16.05S98.54,50,98.32,50.1Z"/><path class="cls-78" d="M22.93,55.58c.1-.13.06.18,0-.06a.16.16,0,0,0,0-.11C22.83,55.57,22.87,55.53,22.93,55.58Z"/><path class="cls-73" d="M40.93,55.41l-.15,0v-.18l0,.21C41,55.47,40.86,55.47,40.93,55.41Z"/><path class="cls-79" d="M41.34,52.11l-.09-.18C41.29,52.27,41.25,52,41.34,52.11Z"/><path class="cls-80" d="M98.66,50l-.12-.12C98.62,50,98.59,50,98.66,50Z"/></g></g></svg>