<svg id="Слой_1" data-name="Слой 1" xmlns="http://www.w3.org/2000/svg" viewBox="0 0 120.5 68.08"><defs><style>.cls-1{fill:#fff;}.cls-2{fill:#e1e1e1;}.cls-3{fill:#f6f6f6;}.cls-4{fill:#8bb32f;}.cls-5{fill:#688623;}.cls-6{fill:#27aae1;}.cls-7{fill:#1c75bc;}.cls-8{fill:#e3e3e3;}.cls-9{fill:#fbb040;}.cls-10{fill:#f28a13;}.cls-11{fill:#f16a4d;}.cls-12{fill:#e9401b;}.cls-13{fill:#ec008c;}.cls-14{fill:#a01065;}.cls-15{fill:#f5f5f5;}.cls-16{fill:#4991c9;}.cls-17{fill:none;stroke:#89c228;stroke-miterlimit:10;stroke-width:0.5px;}</style></defs><title>главная физ лица</title><rect class="cls-1" x="0.25" y="0.25" width="120" height="67.58"/><rect class="cls-2" x="0.25" y="0.25" width="120" height="67.58"/><rect class="cls-3" x="58.16" y="16.73" width="2.09" height="51.06"/><rect class="cls-3" x="59.75" y="59.45" width="48.08" height="2.09"/><rect class="cls-3" x="0.25" y="32.91" width="120" height="2.09"/><rect class="cls-3" x="10.88" y="0.26" width="3.08" height="46.46"/><rect class="cls-3" x="3.37" y="11.5" width="31.01" height="1.9"/><path class="cls-4" d="M2.27,56.09A2.71,2.71,0,0,0,5,58.79V53.4A2.71,2.71,0,0,0,2.27,56.09Z"/><path class="cls-5" d="M5,53.4v5.38A2.69,2.69,0,1,0,5,53.4Z"/><rect class="cls-4" x="4.81" y="54.93" width="0.2" height="6.98"/><polygon class="cls-5" points="5.21 54.93 5.05 54.93 5.01 54.93 5.01 61.9 5.21 61.9 5.21 54.93"/><path class="cls-4" d="M10,56.09a2.71,2.71,0,0,0,2.74,2.69V53.4A2.71,2.71,0,0,0,10,56.09Z"/><path class="cls-5" d="M12.73,53.4v5.38a2.69,2.69,0,1,0,0-5.38Z"/><rect class="cls-4" x="12.53" y="54.93" width="0.2" height="6.98"/><polygon class="cls-5" points="12.92 54.93 12.77 54.93 12.73 54.93 12.73 61.9 12.92 61.9 12.92 54.93"/><path class="cls-4" d="M18.17,56.09a2.71,2.71,0,0,0,2.74,2.69V53.4A2.71,2.71,0,0,0,18.17,56.09Z"/><path class="cls-5" d="M20.91,53.4v5.38a2.69,2.69,0,1,0,0-5.38Z"/><rect class="cls-4" x="20.71" y="54.93" width="0.2" height="6.98"/><polygon class="cls-5" points="21.1 54.93 20.95 54.93 20.91 54.93 20.91 61.9 21.1 61.9 21.1 54.93"/><path class="cls-4" d="M28.4,25.29A2.71,2.71,0,0,0,31.13,28V22.6A2.71,2.71,0,0,0,28.4,25.29Z"/><path class="cls-5" d="M31.13,22.6V28a2.69,2.69,0,1,0,0-5.38Z"/><rect class="cls-4" x="30.94" y="24.12" width="0.2" height="6.98"/><polygon class="cls-5" points="31.33 24.12 31.18 24.12 31.13 24.12 31.13 31.1 31.33 31.1 31.33 24.12"/><path class="cls-3" d="M18.17,44.3H.25V47l17.92,0c5.1,0,9.76,2.86,9.75,6.51V67.79h3.25V53.61C31.18,48.48,25.35,44.31,18.17,44.3Z"/><path class="cls-3" d="M47,43.31a3.58,3.58,0,0,0-3.58,3.58V58.56a1.93,1.93,0,0,1-1.93,1.93h-12v1.65h12a3.58,3.58,0,0,0,3.58-3.58V46.89A1.93,1.93,0,0,1,47,45H72V43.31Z"/><rect class="cls-3" x="15.71" y="36.49" width="8.37" height="5.17"/><rect class="cls-3" x="16.62" y="15.76" width="8.37" height="5.17"/><rect class="cls-3" x="27.7" y="15.76" width="4.8" height="5.17"/><rect class="cls-3" x="16.91" y="25.61" width="4.8" height="5.17"/><rect class="cls-3" x="25.91" y="36.49" width="8.47" height="2.47"/><rect class="cls-3" x="36.55" y="36.49" width="4.13" height="6.81"/><path class="cls-6" d="M15.63,49.67a.36.36,0,0,1-.36-.36V46.92a.36.36,0,0,1,.36-.36H16.9v-.61H15.13a.51.51,0,0,0-.51.51v3.33a.51.51,0,0,0,.51.51h1l.3,1,.44,1.46V49.67Z"/><path class="cls-7" d="M18.67,45.94H16.9v.61h1.27a.36.36,0,0,1,.36.36V49.3a.36.36,0,0,1-.36.36H16.9v3.06l.44-1.46.3-1h1a.51.51,0,0,0,.51-.51V46.45A.51.51,0,0,0,18.67,45.94Z"/><path class="cls-8" d="M18.17,49.67a.36.36,0,0,0,.36-.36V46.92a.36.36,0,0,0-.36-.36H16.9v3.12Z"/><path class="cls-3" d="M15.26,46.92V49.3a.36.36,0,0,0,.36.36H16.9V46.55H15.63A.36.36,0,0,0,15.26,46.92Z"/><path class="cls-9" d="M105.41,42a.36.36,0,0,1-.36-.36V39.24a.36.36,0,0,1,.36-.36h1.27v-.61h-1.77a.51.51,0,0,0-.51.51V42.1a.51.51,0,0,0,.51.51h1l.3,1,.44,1.46V42Z"/><path class="cls-10" d="M108.46,38.26h-1.77v.61H108a.36.36,0,0,1,.36.36v2.39A.36.36,0,0,1,108,42h-1.27v3.06l.44-1.46.3-1h1a.51.51,0,0,0,.51-.51V38.77A.51.51,0,0,0,108.46,38.26Z"/><path class="cls-8" d="M108,42a.36.36,0,0,0,.36-.36V39.24a.36.36,0,0,0-.36-.36h-1.27V42Z"/><path class="cls-3" d="M105.05,39.24v2.39a.36.36,0,0,0,.36.36h1.27V38.88h-1.27A.36.36,0,0,0,105.05,39.24Z"/><path class="cls-9" d="M16.12,6.2a1.6,1.6,0,0,1,1.6-1.6V3.92a2.28,2.28,0,0,0-.58,4.48h0l.58,2.29V7.8A1.6,1.6,0,0,1,16.12,6.2Z"/><path class="cls-10" d="M17.72,3.92v.68a1.6,1.6,0,1,1,0,3.19v2.91l.58-2.29h0a2.28,2.28,0,0,0-.58-4.48Z"/><path class="cls-3" d="M16.12,6.2a1.6,1.6,0,0,0,1.6,1.6V4.61A1.6,1.6,0,0,0,16.12,6.2Z"/><path class="cls-8" d="M19.31,6.2a1.6,1.6,0,0,0-1.6-1.6V7.8A1.6,1.6,0,0,0,19.31,6.2Z"/><path class="cls-11" d="M72.7,61a1.6,1.6,0,0,1,1.6-1.6v-.68a2.28,2.28,0,0,0-.58,4.48h0l.58,2.29V62.62A1.6,1.6,0,0,1,72.7,61Z"/><path class="cls-12" d="M74.3,58.75v.68a1.6,1.6,0,1,1,0,3.19v2.92l.58-2.29h0a2.28,2.28,0,0,0-.58-4.48Z"/><path class="cls-3" d="M72.7,61a1.6,1.6,0,0,0,1.6,1.6V59.43A1.6,1.6,0,0,0,72.7,61Z"/><path class="cls-8" d="M75.89,61a1.6,1.6,0,0,0-1.6-1.6v3.19A1.6,1.6,0,0,0,75.89,61Z"/><path class="cls-3" d="M76.43,41.37A1.93,1.93,0,0,1,74.5,43.3h-12V45h12a3.58,3.58,0,0,0,3.58-3.58V34H76.43Z"/><path class="cls-13" d="M4.79,21.49A1.59,1.59,0,0,1,6.38,19.9v-.68a2.26,2.26,0,0,0-.58,4.45h0L6.38,26v-2.9A1.59,1.59,0,0,1,4.79,21.49Z"/><path class="cls-14" d="M6.38,19.23v.68a1.59,1.59,0,0,1,0,3.17V26L7,23.69H7a2.26,2.26,0,0,0-.58-4.45Z"/><path class="cls-14" d="M5.48,21.49a.9.9,0,0,1,.9-.9V19.9a1.59,1.59,0,1,0,0,3.17v-.68A.9.9,0,0,1,5.48,21.49Z"/><path class="cls-13" d="M6.38,19.9v.69a.9.9,0,0,1,0,1.8v.68a1.59,1.59,0,0,0,0-3.17Z"/><path class="cls-6" d="M69.65,37.78a1.59,1.59,0,0,1,1.59-1.59v-.68A2.26,2.26,0,0,0,70.66,40h0l.58,2.28v-2.9A1.59,1.59,0,0,1,69.65,37.78Z"/><path class="cls-7" d="M71.24,35.51v.68a1.59,1.59,0,0,1,0,3.17v2.9L71.81,40h0a2.26,2.26,0,0,0-.58-4.45Z"/><path class="cls-7" d="M70.34,37.78a.9.9,0,0,1,.9-.9v-.69a1.59,1.59,0,1,0,0,3.17v-.68A.9.9,0,0,1,70.34,37.78Z"/><path class="cls-6" d="M71.24,36.19v.69a.9.9,0,0,1,0,1.8v.68a1.59,1.59,0,0,0,0-3.17Z"/><path class="cls-4" d="M36.48,49.71a1.59,1.59,0,0,1,1.59-1.59v-.68a2.26,2.26,0,0,0-.58,4.45h0l.58,2.28v-2.9A1.59,1.59,0,0,1,36.48,49.71Z"/><path class="cls-5" d="M38.06,47.44v.68a1.59,1.59,0,0,1,0,3.17v2.9l.58-2.28h0a2.26,2.26,0,0,0-.58-4.45Z"/><path class="cls-5" d="M37.16,49.71a.9.9,0,0,1,.9-.9v-.69a1.59,1.59,0,1,0,0,3.17v-.68A.9.9,0,0,1,37.16,49.71Z"/><path class="cls-4" d="M38.06,48.12v.69a.9.9,0,1,1,0,1.8v.68a1.59,1.59,0,0,0,0-3.17Z"/><path class="cls-9" d="M115.23,15.62A1.59,1.59,0,0,1,116.81,14v-.68a2.26,2.26,0,0,0-.58,4.45h0l.58,2.28v-2.9A1.59,1.59,0,0,1,115.23,15.62Z"/><path class="cls-10" d="M116.81,13.36V14a1.59,1.59,0,0,1,0,3.17v2.9l.58-2.28h0a2.26,2.26,0,0,0-.58-4.45Z"/><path class="cls-10" d="M115.91,15.63a.9.9,0,0,1,.9-.9V14a1.59,1.59,0,1,0,0,3.17v-.68A.9.9,0,0,1,115.91,15.63Z"/><path class="cls-9" d="M116.81,14v.69a.9.9,0,0,1,0,1.8v.68a1.59,1.59,0,0,0,0-3.17Z"/><path class="cls-3" d="M108.5,51.06a3.58,3.58,0,0,0-3.58-3.58H93.24a1.93,1.93,0,0,1-1.93-1.93v-12H89.66v12a3.58,3.58,0,0,0,3.58,3.58h11.68a1.93,1.93,0,0,1,1.93,1.93V67.79h1.65Z"/><rect class="cls-3" x="94.75" y="36.91" width="8.09" height="4.63"/><rect class="cls-3" x="84.83" y="28.53" width="5.19" height="2.88"/><rect class="cls-3" x="94.58" y="28.53" width="9.23" height="2.88"/><rect class="cls-3" x="109.19" y="28.53" width="5.19" height="2.88"/><rect class="cls-3" x="111.4" y="57.91" width="6.3" height="7.25"/><rect class="cls-3" x="111.4" y="36.91" width="6.3" height="16.25"/><rect class="cls-3" x="108.32" y="54.92" width="11.93" height="1.65"/><path class="cls-15" d="M59.15,30c-2.87,0-5.2,1.85-5.2,4.13s2.32,4.12,5.2,4.12,5.19-1.84,5.19-4.12S62,30,59.15,30Zm0,7c-2,0-3.64-1.29-3.64-2.89s1.63-2.89,3.64-2.89,3.63,1.29,3.63,2.89S61.15,37,59.14,37Z"/><path class="cls-2" d="M59.14,31.2c-2,0-3.64,1.29-3.64,2.89S57.13,37,59.14,37s3.63-1.29,3.63-2.89S61.15,31.2,59.14,31.2Zm0,4.45a1.79,1.79,0,0,1-2-1.56,2,2,0,0,1,3.93,0A1.8,1.8,0,0,1,59.14,35.65Z"/><ellipse class="cls-15" cx="59.14" cy="34.09" rx="2.06" ry="1.65"/><polygon class="cls-5" points="103.72 55.44 104.4 55.44 103.14 53.25 103.85 53.25 102.42 50.77 102.42 57.69 105.01 57.69 103.72 55.44"/><polygon class="cls-4" points="100.99 53.25 101.7 53.25 100.44 55.44 101.12 55.44 99.83 57.69 102.42 57.69 102.42 50.77 100.99 53.25"/><path class="cls-12" d="M67.5,18.39A8.35,8.35,0,0,0,59.14,10v3.86a4.5,4.5,0,1,1,0,9V34.42s3.94-6.3,5.43-8.42C67.87,21.29,67.5,18.39,67.5,18.39Z"/><path class="cls-11" d="M59.14,13.89V10a8.35,8.35,0,0,0-8.35,8.35s-.38,2.9,2.93,7.61c1.49,2.12,5.43,8.42,5.43,8.42V22.89a4.5,4.5,0,1,1,0-9Z"/><path class="cls-3" d="M53.06,18.54a6.09,6.09,0,0,0,6.09,6.09V12.45A6.09,6.09,0,0,0,53.06,18.54Z"/><path class="cls-8" d="M59.14,12.45V24.62a6.09,6.09,0,1,0,0-12.18Z"/><polygon class="cls-5" points="95.01 22.49 95.85 22.49 94.29 19.79 95.18 19.79 93.41 16.73 93.41 25.25 96.61 25.25 95.01 22.49"/><polygon class="cls-4" points="91.65 19.79 92.53 19.79 90.97 22.49 91.81 22.49 90.22 25.25 93.41 25.25 93.41 16.73 91.65 19.79"/><polygon class="cls-5" points="103.81 22.49 104.65 22.49 103.09 19.79 103.97 19.79 102.21 16.73 102.21 25.25 105.4 25.25 103.81 22.49"/><polygon class="cls-4" points="100.45 19.79 101.33 19.79 99.77 22.49 100.61 22.49 99.02 25.25 102.21 25.25 102.21 16.73 100.45 19.79"/><polygon class="cls-5" points="112.38 22.49 113.22 22.49 111.67 19.79 112.55 19.79 110.78 16.73 110.78 25.25 113.97 25.25 112.38 22.49"/><polygon class="cls-4" points="109.02 19.79 109.9 19.79 108.34 22.49 109.19 22.49 107.59 25.25 110.78 25.25 110.78 16.73 109.02 19.79"/><path class="cls-3" d="M75.6,33.8H74.4c0-.19,0-4.74,2.4-6.84a8.68,8.68,0,0,0,2.82-6c.15-4.31.47-10.28.47-10.34l1.2.06c0,.06-.32,6-.47,10.32a9.83,9.83,0,0,1-3.23,6.84C75.62,29.61,75.6,33.76,75.6,33.8Z"/><path class="cls-5" d="M91.87,5a2.22,2.22,0,0,0-2.22-2.22v1a1.2,1.2,0,1,1,0,2.39V9.23s1-1.67,1.44-2.24A3.23,3.23,0,0,0,91.87,5Z"/><path class="cls-4" d="M89.65,3.77v-1A2.22,2.22,0,0,0,87.43,5a3.23,3.23,0,0,0,.78,2c.39.56,1.44,2.24,1.44,2.24V6.16a1.2,1.2,0,0,1,0-2.39Z"/><path class="cls-3" d="M88,5a1.62,1.62,0,0,0,1.62,1.62V3.39A1.62,1.62,0,0,0,88,5Z"/><path class="cls-8" d="M89.65,3.39V6.63a1.62,1.62,0,0,0,0-3.24Z"/><polygon class="cls-6" points="77.56 8.15 77.99 8.15 78.79 5.8 78.3 4.54 76.75 5.89 75.88 8.15 76.53 8.15 77.56 8.15"/><polygon class="cls-1" points="78.3 4.54 77.79 3.21 77 5.25 76.75 5.89 78.3 4.54"/><polygon class="cls-6" points="80.71 8.15 81.89 5.47 80.97 2.76 79.27 4.39 78.79 5.8 77.99 8.15 80.71 8.15"/><polygon class="cls-1" points="80.4 1.08 79.27 4.39 79.27 4.39 80.97 2.76 80.4 1.08"/><polygon class="cls-6" points="85.53 8.15 83.72 4.08 81.97 5.29 81.89 5.47 80.71 8.15 85.53 8.15"/><polygon class="cls-1" points="83.72 4.08 83.11 2.71 82.19 4.8 81.97 5.29 83.72 4.08"/><polygon class="cls-6" points="96.26 8.15 96.69 8.15 97.49 5.8 97 4.54 95.45 5.89 94.57 8.15 95.23 8.15 96.26 8.15"/><polygon class="cls-1" points="97 4.54 96.49 3.21 95.7 5.25 95.45 5.89 97 4.54"/><polygon class="cls-6" points="99.4 8.15 100.59 5.47 99.67 2.76 97.97 4.39 97.49 5.8 96.69 8.15 99.4 8.15"/><polygon class="cls-1" points="99.1 1.08 97.97 4.39 97.97 4.39 99.67 2.76 99.1 1.08"/><polygon class="cls-6" points="104.22 8.15 102.42 4.08 100.67 5.29 100.59 5.47 99.4 8.15 104.22 8.15"/><polygon class="cls-1" points="102.42 4.08 101.81 2.71 100.89 4.8 100.67 5.29 102.42 4.08"/><path class="cls-3" d="M80.87,18.59l-1.1-.48c.12-.29,1.46-2.89,10.95-3.5,1.73-.11,3.51-.2,5.22-.28,7.1-.35,14.44-.72,16-2.69,1.82-2.36,1.5-3.75,1.49-3.76l1.15-.33c.06.19.5,2-1.7,4.83C111,14.78,104,15.12,96,15.52c-1.71.09-3.48.17-5.21.28C82.14,16.36,80.89,18.57,80.87,18.59Z"/><path class="cls-3" d="M39.66,33.61c-.06-.4-1.41-9.9,1.1-13.5a19.92,19.92,0,0,1,1.95-2.38c1-1.06,1.39-1.49,1.71-4.15.19-1.56,0-7.16,0-7.22l1.2,0c0,.23.19,5.75,0,7.4-.35,2.92-.87,3.59-2,4.82a18.87,18.87,0,0,0-1.84,2.25c-2.24,3.21-.91,12.54-.9,12.64Z"/><path class="cls-16" d="M93.54,12l-3,0H88.84A99.14,99.14,0,0,1,62.21,8.18C54.7,5.93,47.39,6.42,41.52,6.82c-4.46.3-8,.54-10.53-.41-4-1.48-4.15-6-4.16-6.16h1.82a4.81,4.81,0,0,0,3,4.46c2.18.81,5.71.57,9.78.3,6-.4,13.5-.91,21.33,1.44a97.22,97.22,0,0,0,26.11,3.75h1.67c4.4.05,16.08.19,18.23-2,2.46-2.5,10.58-2.6,11.5-2.6v1.8c-3.18,0-8.76.59-10.22,2.07C107.94,11.61,101.13,12,93.54,12Z"/><rect class="cls-3" x="83.79" y="49.08" width="0.81" height="11.41"/><rect class="cls-3" x="76.45" y="51.87" width="22.74" height="1.01"/><rect class="cls-3" x="68.15" y="46.38" width="5.01" height="3.63"/><rect class="cls-3" x="81.28" y="36.45" width="5.01" height="3.63"/><rect class="cls-3" x="63.14" y="54.23" width="10.02" height="3.62"/><rect class="cls-3" x="46.64" y="47.27" width="10.02" height="3.62"/><rect class="cls-3" x="34.13" y="55.87" width="5.94" height="3.63"/><rect class="cls-17" x="0.25" y="0.25" width="120" height="67.58"/></svg>